<svg version="1.1" xmlns="http://www.w3.org/2000/svg" viewBox="0 0 700 446.47025162099766" width="700" height="446.47025162099766">
  <!-- svg-source:excalidraw -->
  
  <defs>
    <style>
      @font-face {
        font-family: "Virgil";
        src: url("https://excalidraw.com/Virgil.woff2");
      }
      @font-face {
        font-family: "Cascadia";
        src: url("https://excalidraw.com/Cascadia.woff2");
      }
    </style>
  </defs>
  <rect x="0" y="0" width="700" height="446.47025162099766" fill="#ffffff"></rect><g stroke-linecap="round" transform="translate(49 74.44444444444434) rotate(0 122.5 58.21428571428572)"><path d="M0.19 -0.02 C77.7 0.03, 156.5 -1.92, 244.74 1.45 M-0.67 0.24 C63.04 -1.6, 126.39 -0.93, 244.36 -0.37 M246.47 -1.9 C244.93 32.08, 246.19 65.21, 246.76 117.8 M244.08 -0.76 C244.09 42.59, 245.29 85.13, 245.96 116.12 M246.25 115.13 C166.67 116.03, 88.82 117.94, -0.17 117.72 M245.64 116.44 C174.87 116.26, 105.22 115.69, 0.11 116.27 M1.76 114.68 C-0.82 84.83, 1.3 56.38, 1.93 -0.79 M0.6 117.03 C-0.02 75, 0.1 32.14, 0.89 0.4" stroke="#000000" stroke-width="1" fill="none"></path></g><g transform="translate(153.5 103.94444444444434) rotate(0 18 13)"><text x="18" y="18" font-family="Virgil, Segoe UI Emoji" font-size="20px" fill="#000000" text-anchor="middle" style="white-space: pre;" direction="ltr">CLI</text></g><g stroke-linecap="round" transform="translate(394 70.44444444444434) rotate(0 113 61.35714285714289)"><path d="M0.45 1.34 C59.08 0.13, 120.83 -1.25, 227.11 1.29 M-0.6 -0.46 C83.22 -1.17, 166.77 -0.37, 225.43 0.67 M225.38 -1.62 C224.91 36.29, 223.99 68.12, 224.61 121.26 M226.69 -0.1 C226 25.6, 224.75 49.25, 226.99 122.53 M224.45 123.96 C177.91 123.47, 129 124.93, 1.01 124.14 M226.43 121.98 C160.86 123.24, 94.49 122.8, -0.78 122.1 M-1.99 124.16 C0.57 98.29, 0.33 72.15, -1.62 -0.14 M-0.32 123.19 C-2.02 78.32, -0.09 33.67, 0.67 -0.49" stroke="#000000" stroke-width="1" fill="none"></path></g><g transform="translate(444 99.94444444444434) rotate(0 63 13)"><text x="63" y="18" font-family="Virgil, Segoe UI Emoji" font-size="20px" fill="#000000" text-anchor="middle" style="white-space: pre;" direction="ltr">GRPC server</text></g><g stroke-linecap="round" transform="translate(10 44.44444444444434) rotate(0 340 88.73015873015873)"><path d="M-0.5 0.65 C257.73 1.08, 516.5 1.42, 680.12 0.27 M678.39 -0.65 C680.4 36.05, 680.29 76.51, 680.54 176.59 M679.27 178.19 C452.89 175.21, 224.73 175.75, 0.42 176.71 M1.05 177.65 C-2.68 122.43, -2.9 68.32, 0.22 1.09" stroke="#000000" stroke-width="1.5" fill="none" stroke-dasharray="8 9"></path></g><g transform="translate(610.3333333333333 10) rotate(0 31 13)"><text x="0" y="18" font-family="Virgil, Segoe UI Emoji" font-size="20px" fill="#000000" text-anchor="start" style="white-space: pre;" direction="ltr">clients</text></g><g stroke-linecap="round" transform="translate(238.8123309121603 369.80358495433103) rotate(0 120 33.333333333333314)"><path d="M-1.43 0.06 L239.69 0.01 L238.09 65.32 L1.76 64.68" stroke="none" stroke-width="0" fill="#ffffffff"></path><path d="M-1.26 -1.29 C62.82 -0.29, 121.73 -3.34, 239.35 1.07 M0.74 -0.42 C61.44 1.27, 123.1 0.58, 239.8 0.69 M239.2 -1.51 C241.94 20.24, 239.06 43.98, 239.58 68.4 M239.51 0.92 C239.89 27.3, 239.97 53.59, 240.42 67.36 M241.57 67.95 C149.91 68.38, 57.57 68.09, -1.61 65.09 M240.34 67.19 C147.35 65.62, 54.21 66.09, -0.14 66.42 M1.8 64.93 C0.71 52.76, 1.03 36.78, 0.97 -1.44 M0.31 66.46 C-0.95 43.25, 0.09 19.74, -0.03 -0.47" stroke="#000000" stroke-width="1" fill="none"></path></g><g transform="translate(316.5901086899381 388.58136273210886) rotate(0 33 13)"><text x="0" y="18" font-family="Virgil, Segoe UI Emoji" font-size="20px" fill="#000000" text-anchor="start" style="white-space: pre;" direction="ltr">service</text></g><g stroke-linecap="round" transform="translate(402.3043944042238 154.27183892258483) rotate(0 62.10317460317469 16.087901664730936)"><path d="M-1.81 0.5 C38.08 1.82, 77.16 3.04, 122.52 -1.31 M-0.22 0.28 C47.37 0.75, 91.99 -0.4, 123.22 0.27 M122.74 0.8 C124.53 9.91, 122.24 21.23, 124.16 31.3 M124.47 0.05 C123.6 7.39, 124.93 16.97, 123.49 31.23 M122.77 32.96 C87.67 31.83, 48.66 33.59, 1.19 32.58 M124.43 32.88 C86.11 32.36, 47.72 31.6, -0.37 31.63 M-0.71 33.53 C-2 21.67, -1.56 10.71, -1.94 0.93 M-0.47 32.47 C0.36 21.13, -0.74 9.58, -0.84 0.04" stroke="#000000" stroke-width="1" fill="none"></path></g><g transform="translate(430.6932832931127 157.3597405873158) rotate(0 33 13)"><text x="33" y="18" font-family="Virgil, Segoe UI Emoji" font-size="20px" fill="#000000" text-anchor="middle" style="white-space: pre;" direction="ltr">Library</text></g><g stroke-linecap="round" transform="translate(54.804394404223785 154.19187376579043) rotate(0 62.10317460317469 16.087901664730936)"><path d="M1.11 -0.64 C39.25 -0.85, 78.71 -0.29, 122.4 1.13 M0.27 -0.52 C38.18 -0.48, 77.44 -1.24, 124.07 0.6 M122.35 -0.2 C122.37 11.25, 125.07 25.78, 123.7 33.54 M124.2 0.52 C123.51 11.78, 124.76 23.07, 123.73 32.72 M125.49 30.67 C92.05 32.99, 63.14 32.82, -1.54 32.05 M123.89 31.99 C95.48 31.61, 65.67 31.11, -0.31 32.48 M0.96 33.64 C-1.07 20.51, 1.65 9.83, 1.56 -0.84 M0.26 31.28 C0.8 24.49, 0.48 15.44, 0 0.64" stroke="#000000" stroke-width="1" fill="none"></path></g><g transform="translate(83.1932832931127 157.27977543052134) rotate(0 33 13)"><text x="33" y="18" font-family="Virgil, Segoe UI Emoji" font-size="20px" fill="#000000" text-anchor="middle" style="white-space: pre;" direction="ltr">Library</text></g><g stroke-linecap="round"><g transform="translate(184.0504261502556 174.5654897162358) rotate(0 69.14135136223197 95.59890753959037)"><path d="M0.04 -0.11 C23.44 31.71, 116.28 159.02, 139.67 190.82 M-1.39 -1.22 C21.95 30.83, 115.32 160.21, 138.93 192.42" stroke="#000000" stroke-width="1" fill="none"></path></g></g><g stroke-linecap="round"><g transform="translate(527.6218547216843 170.99406114480723) rotate(0 -72.8654214203359 97.16103180624611)"><path d="M0.35 0.59 C-24.18 32.99, -121.83 162.22, -146.08 194.46 M-0.92 -0.14 C-25.19 31.93, -119.75 160.79, -143.94 192.81" stroke="#000000" stroke-width="1" fill="none"></path></g></g><g transform="translate(183.3361404359698 324.8512040019501) rotate(0 55 13)"><text x="0" y="18" font-family="Virgil, Segoe UI Emoji" font-size="20px" fill="#000000" text-anchor="start" style="white-space: pre;" direction="ltr">unix socket</text></g><g stroke-linecap="round" transform="translate(313.3361404359698 359.5654897162358) rotate(0 10.35714285714289 10.714285714285722)"><path d="M9.27 -0.29 C11.24 -0.47, 14.3 1.04, 16.16 2.39 C18.02 3.73, 19.83 5.65, 20.41 7.79 C20.99 9.92, 20.49 13.17, 19.64 15.2 C18.8 17.23, 17.25 18.9, 15.33 19.96 C13.41 21.02, 10.3 22.01, 8.12 21.55 C5.93 21.09, 3.67 19.03, 2.21 17.19 C0.74 15.34, -0.8 12.85, -0.67 10.47 C-0.54 8.09, 1.12 4.5, 2.97 2.9 C4.82 1.3, 9.04 1.17, 10.44 0.84 C11.85 0.5, 11.3 0.81, 11.4 0.88 M11.01 -0.63 C13.37 -0.72, 16.01 0.63, 17.37 2.31 C18.72 3.99, 18.82 7.13, 19.13 9.46 C19.43 11.79, 19.82 14.24, 19.18 16.3 C18.55 18.36, 17.4 21.14, 15.32 21.83 C13.25 22.51, 8.86 21.2, 6.73 20.4 C4.6 19.61, 3.65 19, 2.54 17.04 C1.43 15.09, 0.1 10.95, 0.07 8.68 C0.04 6.41, 0.77 4.83, 2.35 3.41 C3.93 2, 8.14 0.85, 9.57 0.17 C11 -0.5, 10.87 -0.93, 10.94 -0.63" stroke="none" stroke-width="0" fill="#ffffffff"></path><path d="M11.64 0.06 C13.92 0.05, 16.55 1.44, 17.89 3.1 C19.24 4.77, 19.67 7.91, 19.71 10.05 C19.75 12.18, 19.07 14.25, 18.12 15.92 C17.18 17.58, 16.16 19.34, 14.06 20.05 C11.95 20.76, 7.54 20.87, 5.47 20.17 C3.4 19.47, 2.37 17.73, 1.65 15.86 C0.92 13.99, 0.72 11.1, 1.12 8.96 C1.52 6.81, 1.79 4.36, 4.04 3 C6.29 1.63, 12.44 0.97, 14.62 0.75 C16.79 0.53, 17.41 1.66, 17.09 1.67 M10.79 0.15 C12.93 -0.01, 14.17 0.57, 15.82 1.72 C17.47 2.88, 20.18 4.62, 20.71 7.07 C21.25 9.51, 20.11 14.03, 19.03 16.4 C17.94 18.78, 16.01 20.62, 14.18 21.3 C12.35 21.98, 10.3 21.15, 8.06 20.48 C5.81 19.81, 1.8 19.03, 0.7 17.27 C-0.39 15.52, 1.34 12.48, 1.5 9.97 C1.66 7.45, 0.15 3.75, 1.66 2.19 C3.16 0.62, 9.44 1.11, 10.53 0.59 C11.62 0.06, 8.3 -1.28, 8.19 -0.96" stroke="#000000" stroke-width="1" fill="none"></path></g><g stroke-linecap="round" transform="translate(372.62185472168403 363.13691828766434) rotate(0 11.071428571428555 7.857142857142833)"><path d="M15.62 1.58 C17.73 2.28, 19.89 3.72, 21 5.15 C22.11 6.57, 22.88 8.7, 22.28 10.1 C21.68 11.51, 19.48 12.55, 17.39 13.57 C15.3 14.58, 12.18 16.18, 9.75 16.2 C7.32 16.23, 4.45 15.14, 2.82 13.71 C1.19 12.27, 0.02 9.35, -0.03 7.6 C-0.09 5.85, 1.09 4.28, 2.5 3.21 C3.91 2.13, 6 1.53, 8.45 1.13 C10.89 0.74, 15.8 0.69, 17.18 0.85 C18.56 1.02, 16.84 2, 16.72 2.13 M9.29 0.21 C11.84 -0.33, 15.97 -0.55, 18 0.51 C20.03 1.57, 20.78 4.75, 21.48 6.58 C22.18 8.4, 23.22 10.24, 22.21 11.46 C21.2 12.69, 17.84 13.19, 15.43 13.93 C13.02 14.67, 10.03 15.97, 7.75 15.93 C5.48 15.88, 2.87 15.31, 1.76 13.64 C0.66 11.97, 0.76 7.89, 1.11 5.91 C1.47 3.93, 2.59 2.66, 3.91 1.78 C5.22 0.9, 7.96 0.72, 8.99 0.62 C10.02 0.52, 9.75 1.08, 10.07 1.18" stroke="none" stroke-width="0" fill="#ffffffff"></path><path d="M15.15 0.46 C17.42 0.6, 19.93 1.64, 20.92 2.92 C21.91 4.2, 21.54 6.43, 21.09 8.15 C20.65 9.87, 20.01 11.83, 18.25 13.25 C16.49 14.67, 12.85 16.59, 10.52 16.68 C8.19 16.76, 6.01 14.93, 4.28 13.77 C2.55 12.61, 0.71 11.4, 0.13 9.71 C-0.45 8.02, -0.47 5.23, 0.81 3.63 C2.09 2.03, 5 0.49, 7.81 0.12 C10.62 -0.24, 15.88 1.15, 17.69 1.44 C19.5 1.72, 18.83 1.59, 18.66 1.83 M12.52 0.54 C14.8 0.44, 15.56 -0.52, 17.21 0.73 C18.87 1.99, 21.65 6.36, 22.44 8.07 C23.24 9.78, 23.32 9.68, 21.98 10.99 C20.64 12.3, 16.98 15.32, 14.41 15.92 C11.83 16.53, 8.79 15.41, 6.54 14.62 C4.29 13.83, 1.85 12.58, 0.88 11.2 C-0.09 9.81, 0.27 7.9, 0.73 6.32 C1.19 4.73, 1.93 2.55, 3.65 1.69 C5.36 0.83, 9.87 1.25, 11.01 1.15 C12.15 1.05, 10.33 1.03, 10.51 1.08" stroke="#000000" stroke-width="1" fill="none"></path></g><g transform="translate(413.33614043597004 325.5654897162359) rotate(0 40.5 13)"><text x="0" y="18" font-family="Virgil, Segoe UI Emoji" font-size="20px" fill="#000000" text-anchor="start" style="white-space: pre;" direction="ltr">HTTP/2</text></g></svg>