<svg version="1.1" xmlns="http://www.w3.org/2000/svg" viewBox="0 0 700 424" width="700" height="424">
  <!-- svg-source:excalidraw -->
  
  <defs>
    <style>
      @font-face {
        font-family: "Virgil";
        src: url("https://excalidraw.com/Virgil.woff2");
      }
      @font-face {
        font-family: "Cascadia";
        src: url("https://excalidraw.com/Cascadia.woff2");
      }
    </style>
  </defs>
  <rect x="0" y="0" width="700" height="424" fill="#ffffff"></rect><g stroke-linecap="round" transform="translate(169 285) rotate(0 185 64.5)"><path d="M-0.41 0.12 C109.88 -1.82, 218.79 -1.94, 369.69 0.82 M-0.41 -0.29 C120.85 -0.01, 242.25 0.28, 370.36 -0.61 M369.26 0.04 C368.32 34.92, 370.83 70.78, 368.75 130.58 M369.26 0.01 C370.5 29.14, 370.32 60.85, 370.26 128.97 M369.65 130.03 C227.89 131.6, 85.69 131.49, 1.22 128.36 M370.45 129.33 C294 130.07, 218.13 130.96, 0.27 128.5 M-1.77 127.88 C-1.76 82.06, -0.86 36.23, -1.77 1.25 M-0.08 128.43 C0.52 95.26, 0.44 60.02, -0.77 -0.81" stroke="#000000" stroke-width="1" fill="none"></path></g><g transform="translate(306 338) rotate(0 33 13)"><text x="0" y="18" font-family="Virgil, Segoe UI Emoji" font-size="20px" fill="#000000" text-anchor="start" style="white-space: pre;" direction="ltr">service</text></g><g stroke-linecap="round" transform="translate(49 70) rotate(0 122.5 42.5)"><path d="M0.19 -0.02 C77.7 0.03, 156.5 -1.92, 244.74 1.45 M-0.67 0.24 C63.04 -1.6, 126.39 -0.93, 244.36 -0.37 M246.47 -1.9 C244.77 23.45, 246.03 47.96, 246.76 86.38 M244.08 -0.76 C244.25 31.22, 245.46 62.38, 245.96 84.69 M246.25 83.7 C166.67 84.6, 88.82 86.51, -0.17 86.29 M245.64 85.01 C174.87 84.83, 105.22 84.26, 0.11 84.84 M1.76 83.25 C-1.11 61.68, 1.01 41.51, 1.93 -0.79 M0.6 85.6 C-0.06 54.88, 0.06 23.34, 0.89 0.4" stroke="#000000" stroke-width="1" fill="none"></path></g><g transform="translate(153.5 99.5) rotate(0 18 13)"><text x="18" y="18" font-family="Virgil, Segoe UI Emoji" font-size="20px" fill="#000000" text-anchor="middle" style="white-space: pre;" direction="ltr">CLI</text></g><g stroke-linecap="round" transform="translate(394 66) rotate(0 113 46)"><path d="M0.45 1.34 C59.08 0.13, 120.83 -1.25, 227.11 1.29 M-0.6 -0.46 C83.22 -1.17, 166.77 -0.37, 225.43 0.67 M225.38 -1.62 C225.21 27.53, 224.29 50.59, 224.61 90.55 M226.69 -0.1 C226.16 19.37, 224.92 36.78, 226.99 91.81 M224.45 93.25 C177.91 92.75, 129 94.22, 1.01 93.42 M226.43 91.26 C160.86 92.52, 94.49 92.09, -0.78 91.39 M-1.99 93.44 C0.32 73.91, 0.08 54.13, -1.62 -0.14 M-0.32 92.47 C-1.76 58.67, 0.17 25.07, 0.67 -0.49" stroke="#000000" stroke-width="1" fill="none"></path></g><g stroke-linecap="round"><g transform="translate(186 161) rotate(0 45.428732874016305 55.21456163973083)"><path d="M0.44 0.22 C15.77 18.78, 76.22 93.03, 91.64 111.14 M-0.78 -0.72 C14.38 17.57, 74.93 91.23, 90.5 109.62" stroke="#000000" stroke-width="1" fill="none"></path></g></g><g transform="translate(444 95.5) rotate(0 63 13)"><text x="63" y="18" font-family="Virgil, Segoe UI Emoji" font-size="20px" fill="#000000" text-anchor="middle" style="white-space: pre;" direction="ltr">GRPC server</text></g><g stroke-linecap="round"><g transform="translate(508.322400113228 168.69204660166207) rotate(0 -45.35314550216623 54.14218662230253)"><path d="M-0.84 1.02 C-15.89 19.04, -75.81 90.2, -90.87 107.78 M0.93 0.51 C-14.21 18.24, -76.15 88.27, -91.63 106.11" stroke="#000000" stroke-width="1" fill="none"></path></g></g><g stroke-linecap="round" transform="translate(10 40) rotate(0 340 77.5)"><path d="M-0.5 0.65 C257.73 1.08, 516.5 1.42, 680.12 0.27 M678.39 -0.65 C680.24 31.3, 680.13 67.01, 680.54 154.13 M679.27 155.73 C452.89 152.75, 224.73 153.29, 0.42 154.25 M1.05 155.19 C-2.48 106.91, -2.71 59.76, 0.22 1.09" stroke="#000000" stroke-width="1.5" fill="none" stroke-dasharray="8 9"></path></g><g transform="translate(607 10) rotate(0 31 13)"><text x="0" y="18" font-family="Virgil, Segoe UI Emoji" font-size="20px" fill="#000000" text-anchor="start" style="white-space: pre;" direction="ltr">clients</text></g></svg>