<svg version="1.1" xmlns="http://www.w3.org/2000/svg" viewBox="0 0 700 446.47025162099766" width="700" height="446.47025162099766">
  <!-- svg-source:excalidraw -->
  
  <defs>
    <style>
      @font-face {
        font-family: "Virgil";
        src: url("https://excalidraw.com/Virgil.woff2");
      }
      @font-face {
        font-family: "Cascadia";
        src: url("https://excalidraw.com/Cascadia.woff2");
      }
    </style>
  </defs>
  <rect x="0" y="0" width="700" height="446.47025162099766" fill="#ffffff"></rect><g stroke-linecap="round" transform="translate(237.8888888888889 244.9999999999999) rotate(0 113.88888888888891 26.72222222222217)"><path d="M-0.56 0.16 C68.46 -2.11, 135.57 -2.29, 227.34 1.13 M-0.57 -0.4 C74.37 -0.2, 149.49 0.2, 228.28 -0.84 M227.03 0.04 C226.22 14.69, 228.73 30.32, 226.53 55.02 M227.04 0.01 C227.99 11.58, 227.81 25.73, 228.04 53.41 M227.29 54.88 C140.48 56.03, 53.06 55.88, 1.69 52.56 M228.4 53.9 C181.09 54.12, 134.58 55.34, 0.37 52.75 M-1.77 52.32 C-1.1 34.12, -0.2 15.91, -1.77 1.25 M-0.08 52.87 C0.21 39.77, 0.12 24.6, -0.77 -0.81" stroke="#000000" stroke-width="1" fill="none"></path></g><g transform="translate(323.7777777777776 256.8888888888888) rotate(0 33 13)"><text x="0" y="18" font-family="Virgil, Segoe UI Emoji" font-size="20px" fill="#000000" text-anchor="start" style="white-space: pre;" direction="ltr">Library</text></g><g stroke-linecap="round" transform="translate(50.111111111111086 74.44444444444434) rotate(0 122.5 42.5)"><path d="M0.19 -0.02 C77.7 0.03, 156.5 -1.92, 244.74 1.45 M-0.67 0.24 C63.04 -1.6, 126.39 -0.93, 244.36 -0.37 M246.47 -1.9 C244.77 23.45, 246.03 47.96, 246.76 86.38 M244.08 -0.76 C244.25 31.22, 245.46 62.38, 245.96 84.69 M246.25 83.7 C166.67 84.6, 88.82 86.51, -0.17 86.29 M245.64 85.01 C174.87 84.83, 105.22 84.26, 0.11 84.84 M1.76 83.25 C-1.11 61.68, 1.01 41.51, 1.93 -0.79 M0.6 85.6 C-0.06 54.88, 0.06 23.34, 0.89 0.4" stroke="#000000" stroke-width="1" fill="none"></path></g><g transform="translate(154.6111111111111 103.94444444444434) rotate(0 18 13)"><text x="18" y="18" font-family="Virgil, Segoe UI Emoji" font-size="20px" fill="#000000" text-anchor="middle" style="white-space: pre;" direction="ltr">CLI</text></g><g stroke-linecap="round" transform="translate(395.1111111111111 70.44444444444434) rotate(0 113 46)"><path d="M0.45 1.34 C59.08 0.13, 120.83 -1.25, 227.11 1.29 M-0.6 -0.46 C83.22 -1.17, 166.77 -0.37, 225.43 0.67 M225.38 -1.62 C225.21 27.53, 224.29 50.59, 224.61 90.55 M226.69 -0.1 C226.16 19.37, 224.92 36.78, 226.99 91.81 M224.45 93.25 C177.91 92.75, 129 94.22, 1.01 93.42 M226.43 91.26 C160.86 92.52, 94.49 92.09, -0.78 91.39 M-1.99 93.44 C0.32 73.91, 0.08 54.13, -1.62 -0.14 M-0.32 92.47 C-1.76 58.67, 0.17 25.07, 0.67 -0.49" stroke="#000000" stroke-width="1" fill="none"></path></g><g stroke-linecap="round"><g transform="translate(201.7363897940454 161.93023255813944) rotate(0 49.959279171366916 38.84935922801678)"><path d="M0.44 0.22 C17.28 13.33, 83.77 65.76, 100.7 78.41 M-0.78 -0.72 C15.89 12.11, 82.48 63.96, 99.57 76.89" stroke="#000000" stroke-width="1" fill="none"></path></g></g><g transform="translate(445.1111111111111 99.94444444444434) rotate(0 63 13)"><text x="63" y="18" font-family="Virgil, Segoe UI Emoji" font-size="20px" fill="#000000" text-anchor="middle" style="white-space: pre;" direction="ltr">GRPC server</text></g><g stroke-linecap="round"><g transform="translate(497.71396505425037 166.87413817002528) rotate(0 -51.39443441187262 37.80400885765617)"><path d="M-0.84 1.02 C-17.9 13.6, -85.88 62.97, -102.95 75.1 M0.93 0.51 C-16.22 12.79, -86.22 61.04, -103.71 73.44" stroke="#000000" stroke-width="1" fill="none"></path></g></g><g stroke-linecap="round" transform="translate(10 44.44444444444434) rotate(0 340 141.94444444444446)"><path d="M-0.5 0.65 C257.73 1.08, 516.5 1.42, 680.12 0.27 M678.77 -0.5 C680.88 58.89, 680.8 121.13, 680.41 283.23 M679.27 284.62 C452.89 281.63, 224.73 282.17, 0.42 283.13 M0.8 284.03 C-2.72 195.96, -2.89 108.74, 0.16 0.83" stroke="#000000" stroke-width="1.5" fill="none" stroke-dasharray="8 9"></path></g><g transform="translate(611.4444444444443 10) rotate(0 31 13)"><text x="0" y="18" font-family="Virgil, Segoe UI Emoji" font-size="20px" fill="#000000" text-anchor="start" style="white-space: pre;" direction="ltr">clients</text></g><g stroke-linecap="round" transform="translate(239.92344202327138 369.80358495433103) rotate(0 120 33.333333333333314)"><path d="M-1.43 0.06 L239.69 0.01 L238.09 65.32 L1.76 64.68" stroke="none" stroke-width="0" fill="#ffffffff"></path><path d="M-1.26 -1.29 C62.82 -0.29, 121.73 -3.34, 239.35 1.07 M0.74 -0.42 C61.44 1.27, 123.1 0.58, 239.8 0.69 M239.2 -1.51 C241.94 20.24, 239.06 43.98, 239.58 68.4 M239.51 0.92 C239.89 27.3, 239.97 53.59, 240.42 67.36 M241.57 67.95 C149.91 68.38, 57.57 68.09, -1.61 65.09 M240.34 67.19 C147.35 65.62, 54.21 66.09, -0.14 66.42 M1.8 64.93 C0.71 52.76, 1.03 36.78, 0.97 -1.44 M0.31 66.46 C-0.95 43.25, 0.09 19.74, -0.03 -0.47" stroke="#000000" stroke-width="1" fill="none"></path></g><g transform="translate(317.7012198010492 388.58136273210886) rotate(0 33 13)"><text x="0" y="18" font-family="Virgil, Segoe UI Emoji" font-size="20px" fill="#000000" text-anchor="start" style="white-space: pre;" direction="ltr">service</text></g><g stroke-linecap="round"><g transform="translate(353.25677535660463 305.3591405098866) rotate(0 0.8384720581029796 26.053605579087588)"><path d="M0.87 -0.03 C1.24 8.69, 1.81 44.3, 1.81 53.21 M-0.13 -1.1 C0.18 7.23, 1.21 42.81, 1.23 51.6" stroke="#000000" stroke-width="1" fill="none"></path></g></g></svg>