<svg version="1.1" xmlns="http://www.w3.org/2000/svg" viewBox="0 0 922.6666666666667 786.3119609601799" width="922.6666666666667" height="786.3119609601799">
  <!-- svg-source:excalidraw -->
  
  <defs>
    <style>
      @font-face {
        font-family: "Virgil";
        src: url("https://excalidraw.com/Virgil.woff2");
      }
      @font-face {
        font-family: "Cascadia";
        src: url("https://excalidraw.com/Cascadia.woff2");
      }
    </style>
  </defs>
  <rect x="0" y="0" width="922.6666666666667" height="786.3119609601799" fill="#ffffff"></rect><g stroke-linecap="round"><g transform="translate(30 46) rotate(0 -2.031648574997689 355.4393063023781)"><path d="M1.16 -0.23 C0.59 118.36, -3.15 592.37, -4.18 710.82 M0.3 -1.39 C-0.37 117.44, -4.73 593.45, -5.22 712.27" stroke="#000000" stroke-width="1" fill="none"></path></g></g><g transform="translate(10 10) rotate(0 21 13)"><text x="0" y="18" font-family="Virgil, Segoe UI Emoji" font-size="20px" fill="#000000" text-anchor="start" style="white-space: pre;" direction="ltr">user</text></g><g stroke-linecap="round"><g transform="translate(166.99999999999977 54) rotate(0 -2.5826924808323497 355.21407870979033)"><path d="M-0.18 -0.18 C-1.2 118.28, -4.34 592.04, -4.99 710.48 M-1.73 -1.31 C-2.49 117.32, -2.27 592.94, -2.79 711.74" stroke="#000000" stroke-width="1" fill="none"></path></g></g><g transform="translate(142 16) rotate(0 25.5 13)"><text x="0" y="18" font-family="Virgil, Segoe UI Emoji" font-size="20px" fill="#000000" text-anchor="start" style="white-space: pre;" direction="ltr">client</text></g><g stroke-linecap="round"><g transform="translate(330.9999999999998 57) rotate(0 -2.193319919565681 355.5840299974427)"><path d="M-0.99 -0.52 C-1.64 117.91, -3.71 591.81, -4.09 710.44 M0.69 1.82 C-0.11 120.43, -4.35 593.19, -5.08 711.69" stroke="#000000" stroke-width="1" fill="none"></path></g></g><g transform="translate(302.9999999999998 15) rotate(0 33 13)"><text x="0" y="18" font-family="Virgil, Segoe UI Emoji" font-size="20px" fill="#000000" text-anchor="start" style="white-space: pre;" direction="ltr">service</text></g><g stroke-linecap="round"><g transform="translate(500.9999999999998 65) rotate(0 -1.9691670193569735 355.3782062418761)"><path d="M-0.09 -0.56 C-0.47 118.08, -2.81 592.83, -3.28 711.31 M-1.59 1.77 C-1.98 120.07, -3.59 591.1, -3.85 709.35" stroke="#000000" stroke-width="1" fill="none"></path></g></g><g transform="translate(489.9999999999998 28) rotate(0 13.5 13)"><text x="0" y="18" font-family="Virgil, Segoe UI Emoji" font-size="20px" fill="#000000" text-anchor="start" style="white-space: pre;" direction="ltr">OS</text></g><g stroke-linecap="round"><g transform="translate(651.9999999999998 60) rotate(0 -1.3003000735537853 355.46423726350986)"><path d="M0.72 0.31 C0.25 118.79, -2.02 592.02, -2.93 710.32 M-0.36 -0.57 C-0.89 118.1, -3.01 592.91, -3.32 711.5" stroke="#000000" stroke-width="1" fill="none"></path></g></g><g transform="translate(623.9999999999998 25) rotate(0 36 13)"><text x="0" y="18" font-family="Virgil, Segoe UI Emoji" font-size="20px" fill="#000000" text-anchor="start" style="white-space: pre;" direction="ltr">process</text></g><g transform="translate(679.6666666666667 140.66666666666697) rotate(0 116.5 26)"><text x="0" y="18" font-family="Virgil, Segoe UI Emoji" font-size="20px" fill="#000000" text-anchor="start" style="white-space: pre;" direction="ltr">(writes to descriptors </text><text x="0" y="44" font-family="Virgil, Segoe UI Emoji" font-size="20px" fill="#000000" text-anchor="start" style="white-space: pre;" direction="ltr">being buffers in service)</text></g><g stroke-linecap="round" transform="translate(150.3333333333328 393) rotate(0 10.916666666666742 44.70833333333326)"><path d="M0.63 0.94 L20.36 -1.41 L23 91.31 L0.79 91.22" stroke="none" stroke-width="0" fill="#ffffffff"></path><path d="M-1.25 -1.45 C5.54 -0.2, 13.86 0.78, 22.89 0.8 M0.1 -0.36 C6.5 0.52, 13.95 0.5, 21.93 0.07 M23.4 0.16 C22.21 24.2, 21.47 44.59, 21.49 87.79 M21.42 -0.73 C22.98 29.72, 22.3 57.86, 20.88 88.92 M20.84 88.42 C15.07 91.07, 11.39 91.37, 0.3 88.95 M21.3 89.56 C16.64 89.36, 11.57 88.3, -0.74 89.38 M0.1 90.41 C0.01 55.25, 0.19 22.16, 1.25 -0.71 M-0.39 89.99 C0.2 58.05, -0.5 27.3, -0.8 -0.48" stroke="#000000" stroke-width="1" fill="none"></path></g><g stroke-linecap="round"><g transform="translate(53.24594194643049 397.13035556199566) rotate(0 45.30484146422708 0.2707003560533394)"><path d="M-0.75 -0.87 C13.93 -0.86, 74.04 -0.74, 89.14 -0.59 M1.06 1.29 C16.02 1.55, 76.71 1.41, 91.36 0.84" stroke="#000000" stroke-width="1" fill="none"></path></g><g transform="translate(53.24594194643049 397.13035556199566) rotate(0 45.30484146422708 0.2707003560533394)"><path d="M61.89 10.01 C73.98 7.2, 85.85 4.46, 92.16 1.56 M62.99 10.74 C70.79 8.16, 77.74 6.31, 91.43 0.44" stroke="#000000" stroke-width="1" fill="none"></path></g><g transform="translate(53.24594194643049 397.13035556199566) rotate(0 45.30484146422708 0.2707003560533394)"><path d="M61.54 -10.51 C73.65 -5.33, 85.66 -0.09, 92.16 1.56 M62.64 -9.78 C70.45 -7.26, 77.48 -4.01, 91.43 0.44" stroke="#000000" stroke-width="1" fill="none"></path></g></g><g transform="translate(55.41666666666674 317.0000000000009) rotate(0 38.5 26)"><text x="0" y="18" font-family="Virgil, Segoe UI Emoji" font-size="20px" fill="#000000" text-anchor="start" style="white-space: pre;" direction="ltr">output</text><text x="0" y="44" font-family="Virgil, Segoe UI Emoji" font-size="20px" fill="#000000" text-anchor="start" style="white-space: pre;" direction="ltr">&lt;UUID&gt;</text></g><g stroke-linecap="round" transform="translate(318.33333333333326 388) rotate(0 10.624999999999943 40.416666666666515)"><path d="M-1.41 1.17 L23.15 0.79 L23.05 80.29 L1.63 80.43" stroke="none" stroke-width="0" fill="#ffffffff"></path><path d="M-0.32 -0.38 C5.71 1.23, 10.9 0.89, 20.22 -0.75 M0.44 -0.72 C7.01 0.27, 13.26 -0.23, 20.88 -0.6 M22.25 -0.03 C19.49 30.25, 19.69 61.67, 21.91 79.73 M22.02 0.17 C20.62 19.96, 20.16 41.58, 21.6 81.49 M22.76 82.43 C17.74 81.05, 10.15 79.89, -0.37 79.65 M21.32 81.79 C15.02 80.18, 10.73 81.63, 0.82 80.04 M-1.05 81.76 C-1.43 57.44, -1.11 32.52, 0.31 1.39 M-0.15 80.47 C-0.15 58.9, -0.94 38.88, 0.47 -0.74" stroke="#000000" stroke-width="1" fill="none"></path></g><g stroke-linecap="round"><g transform="translate(178.6164777418528 407.26682407001454) rotate(0 64.69557208179071 -0.30753734745076144)"><path d="M-0.19 -0.23 C21.81 0.06, 109.24 0.64, 131.15 0.78 M-1.75 -1.39 C20.2 -1.37, 108.33 -0.99, 130.4 -1.01" stroke="#000000" stroke-width="1" fill="none"></path></g><g transform="translate(178.6164777418528 407.26682407001454) rotate(0 64.69557208179071 -0.30753734745076144)"><path d="M101.82 9.85 C109.75 7.72, 115.82 3.57, 129.65 -0.81 M101.47 9.61 C109.83 6.45, 116.78 3.31, 129.8 -0.23" stroke="#000000" stroke-width="1" fill="none"></path></g><g transform="translate(178.6164777418528 407.26682407001454) rotate(0 64.69557208179071 -0.30753734745076144)"><path d="M101.86 -10.67 C109.62 -8.14, 115.68 -7.62, 129.65 -0.81 M101.51 -10.91 C109.68 -8.65, 116.62 -6.37, 129.8 -0.23" stroke="#000000" stroke-width="1" fill="none"></path></g></g><g stroke-linecap="round" transform="translate(638.9999999999998 135) rotate(0 11.666666666666742 297.16666666666697)"><path d="M1.9 0.79 L25.14 -0.55 L24.97 593.93 L0.48 593.08" stroke="none" stroke-width="0" fill="#ffffffff"></path><path d="M0.65 1.06 C5.96 0.77, 9.3 -0.71, 23.54 -0.72 M0.42 0.1 C5.11 -0.24, 9.7 -0.43, 24.12 0.08 M22.6 -0.14 C23.87 199.54, 24.78 398.26, 23 593.75 M23.32 -0.38 C24.97 228.91, 25.31 458.27, 23.13 594.13 M25.14 594.63 C16.73 593.66, 10.68 593.34, -1.07 594.62 M22.34 593.59 C15.31 595.26, 8.19 593.76, 0.05 594.83 M-0.41 594.83 C0.96 394.26, 1.37 193.96, -0.31 0.46 M0.13 594.01 C0.16 396.35, 0.54 197.82, -0.28 0.23" stroke="#000000" stroke-width="1" fill="none"></path></g><g stroke-linecap="round" transform="translate(18.25 388.75) rotate(0 12.166666666666686 52.375)"><path d="M-0.55 1.63 L23.93 0.48 L23.08 105.35 L0.05 103.49" stroke="none" stroke-width="0" fill="#ffffffff"></path><path d="M0.72 -1.03 C7.34 0.11, 15.48 -1.78, 25.21 -1.45 M-0.4 -0.37 C7.72 0.77, 16.74 0.34, 24.83 -0.02 M24.81 0.66 C23.05 21.06, 22.69 45.48, 25.87 105.1 M24.09 0.35 C23.99 30.55, 22.84 61.72, 25.09 105.55 M23.47 104.38 C13.65 103.63, 5.62 105.54, 0.15 106.67 M25.04 105.57 C18.64 104.79, 15.04 105.11, -0.52 105.21 M0.98 105.06 C0.74 77.94, 0.5 53.33, -0.29 -0.72 M0.32 105.22 C0.11 69.28, 1.42 36.18, 0.4 0.9" stroke="#000000" stroke-width="1" fill="none"></path></g><g transform="translate(197.83333333333303 340.33333333333394) rotate(0 38.5 26)"><text x="0" y="18" font-family="Virgil, Segoe UI Emoji" font-size="20px" fill="#000000" text-anchor="start" style="white-space: pre;" direction="ltr">output</text><text x="0" y="44" font-family="Virgil, Segoe UI Emoji" font-size="20px" fill="#000000" text-anchor="start" style="white-space: pre;" direction="ltr">&lt;UUID&gt;</text></g><g stroke-linecap="round"><g transform="translate(315.08333333333337 456.75) rotate(0 -69.03132932810581 0.7888382388371156)"><path d="M1.15 -0.08 C-21.8 0.24, -115.03 1.22, -138 1.65 M0.3 -1.16 C-22.83 -0.7, -116.33 1.91, -139.22 2.74" stroke="#000000" stroke-width="1" fill="none"></path></g><g transform="translate(315.08333333333337 456.75) rotate(0 -69.03132932810581 0.7888382388371156)"><path d="M-111.49 -9.24 C-120.53 -3.68, -126.85 -0.89, -141.05 2.53 M-110.53 -8.96 C-119.75 -3.71, -128.79 -0.94, -138.3 1.81" stroke="#000000" stroke-width="1" fill="none"></path></g><g transform="translate(315.08333333333337 456.75) rotate(0 -69.03132932810581 0.7888382388371156)"><path d="M-110.85 11.27 C-120.03 11.15, -126.52 8.23, -141.05 2.53 M-109.89 11.55 C-119.19 10.4, -128.43 6.75, -138.3 1.81" stroke="#000000" stroke-width="1" fill="none"></path></g></g><g stroke-linecap="round"><g transform="translate(148.83333333333337 470.5) rotate(0 -50.563692437857384 0.9044591323145141)"><path d="M1.19 0 C-15.9 0.55, -85.16 2.62, -102.32 2.85 M0.36 -1.05 C-16.4 -0.83, -82.98 0.38, -100.17 0.92" stroke="#000000" stroke-width="1" fill="none"></path></g><g transform="translate(148.83333333333337 470.5) rotate(0 -50.563692437857384 0.9044591323145141)"><path d="M-72.23 -11.79 C-80.69 -7.08, -92.08 -2.17, -101.74 -0.5 M-72.5 -10.36 C-78.43 -7.74, -85.3 -5.74, -100.89 0.42" stroke="#000000" stroke-width="1" fill="none"></path></g><g transform="translate(148.83333333333337 470.5) rotate(0 -50.563692437857384 0.9044591323145141)"><path d="M-71.75 8.72 C-80.28 6.82, -91.83 5.12, -101.74 -0.5 M-72.01 10.15 C-78.12 8.05, -85.1 5.32, -100.89 0.42" stroke="#000000" stroke-width="1" fill="none"></path></g></g><g stroke-linecap="round"><g transform="translate(623.1666666666667 388.33333333333394) rotate(0 -142.23473248556252 1.4031894095242023)"><path d="M0.13 -0.76 C-47.23 -0.14, -237.02 2.99, -284.6 3.57" stroke="#000000" stroke-width="1.5" fill="none" stroke-dasharray="1.5 7"></path></g><g transform="translate(623.1666666666667 388.33333333333394) rotate(0 -142.23473248556252 1.4031894095242023)"><path d="M-257.83 -6.43 C-264.26 -4.83, -273.09 -1.63, -284.32 4.64" stroke="#000000" stroke-width="1.5" fill="none" stroke-dasharray="1.5 5"></path></g><g transform="translate(623.1666666666667 388.33333333333394) rotate(0 -142.23473248556252 1.4031894095242023)"><path d="M-257.53 14.08 C-264.01 10.29, -272.92 8.09, -284.32 4.64" stroke="#000000" stroke-width="1.5" fill="none" stroke-dasharray="1.5 5"></path></g></g><g stroke-linecap="round"><g transform="translate(623.1666666666667 455.83333333333394) rotate(0 -142.97181059047568 1.905987142771437)"><path d="M-0.76 0.4 C-48.27 0.95, -237.63 2.87, -285.18 3.41" stroke="#000000" stroke-width="1.5" fill="none" stroke-dasharray="1.5 7"></path></g><g transform="translate(623.1666666666667 455.83333333333394) rotate(0 -142.97181059047568 1.905987142771437)"><path d="M-256.43 -7.46 C-265.74 -6.05, -273.42 -0.98, -284.11 4.03" stroke="#000000" stroke-width="1.5" fill="none" stroke-dasharray="1.5 5"></path></g><g transform="translate(623.1666666666667 455.83333333333394) rotate(0 -142.97181059047568 1.905987142771437)"><path d="M-256.22 13.06 C-265.6 8.57, -273.35 7.74, -284.11 4.03" stroke="#000000" stroke-width="1.5" fill="none" stroke-dasharray="1.5 5"></path></g></g><g stroke-linecap="round"><g transform="translate(621.9166666666667 523.3333333333339) rotate(0 -142.46901285722845 1.2553687222300596)"><path d="M0.4 -0.18 C-47.18 0.39, -237.76 2.01, -285.34 2.69" stroke="#000000" stroke-width="1.5" fill="none" stroke-dasharray="1.5 7"></path></g><g transform="translate(621.9166666666667 523.3333333333339) rotate(0 -142.46901285722845 1.2553687222300596)"><path d="M-257.57 -8.44 C-267.81 -4.67, -274.5 -0.14, -284.72 4.35" stroke="#000000" stroke-width="1.5" fill="none" stroke-dasharray="1.5 5"></path></g><g transform="translate(621.9166666666667 523.3333333333339) rotate(0 -142.46901285722845 1.2553687222300596)"><path d="M-257.34 12.08 C-267.53 9.48, -274.29 7.63, -284.72 4.35" stroke="#000000" stroke-width="1.5" fill="none" stroke-dasharray="1.5 5"></path></g></g><g stroke-linecap="round"><g transform="translate(623.1666666666667 578.3333333333339) rotate(0 -143.11963127776983 1.6535907737911657)"><path d="M-0.18 -0.34 C-47.73 0.2, -238.61 2.86, -286.06 3.65" stroke="#000000" stroke-width="1.5" fill="none" stroke-dasharray="1.5 7"></path></g><g transform="translate(623.1666666666667 578.3333333333339) rotate(0 -143.11963127776983 1.6535907737911657)"><path d="M-258.59 -8.79 C-264.79 -4.27, -270.18 -1.4, -284.4 5.28" stroke="#000000" stroke-width="1.5" fill="none" stroke-dasharray="1.5 5"></path></g><g transform="translate(623.1666666666667 578.3333333333339) rotate(0 -143.11963127776983 1.6535907737911657)"><path d="M-258.28 11.72 C-264.63 11.39, -270.09 9.4, -284.4 5.28" stroke="#000000" stroke-width="1.5" fill="none" stroke-dasharray="1.5 5"></path></g></g><g stroke-linecap="round"><g transform="translate(616.9166666666667 637.0833333333339) rotate(0 -142.72140922620883 1.4302416689693018)"><path d="M-0.34 -1.06 C-47.92 -0.37, -237.77 3.05, -285.1 3.92" stroke="#000000" stroke-width="1.5" fill="none" stroke-dasharray="1.5 7"></path></g><g transform="translate(616.9166666666667 637.0833333333339) rotate(0 -142.72140922620883 1.4302416689693018)"><path d="M-258.86 -7.02 C-266.18 -2.27, -275.18 1.91, -283.47 2.62" stroke="#000000" stroke-width="1.5" fill="none" stroke-dasharray="1.5 5"></path></g><g transform="translate(616.9166666666667 637.0833333333339) rotate(0 -142.72140922620883 1.4302416689693018)"><path d="M-258.49 13.49 C-265.9 11.41, -275.02 8.74, -283.47 2.62" stroke="#000000" stroke-width="1.5" fill="none" stroke-dasharray="1.5 5"></path></g></g><g stroke-linecap="round"><g transform="translate(619.4166666666667 708.3333333333339) rotate(0 -142.94475833103053 2.1456028215586684)"><path d="M-1.06 -0.1 C-48.5 0.69, -237.57 3.59, -284.83 4.39" stroke="#000000" stroke-width="1.5" fill="none" stroke-dasharray="1.5 7"></path></g><g transform="translate(619.4166666666667 708.3333333333339) rotate(0 -142.94475833103053 2.1456028215586684)"><path d="M-256.98 -6.04 C-263.75 -2.9, -271.14 1.17, -286.13 4.24" stroke="#000000" stroke-width="1.5" fill="none" stroke-dasharray="1.5 5"></path></g><g transform="translate(619.4166666666667 708.3333333333339) rotate(0 -142.94475833103053 2.1456028215586684)"><path d="M-256.65 14.48 C-263.45 11.78, -270.94 10, -286.13 4.24" stroke="#000000" stroke-width="1.5" fill="none" stroke-dasharray="1.5 5"></path></g></g><g stroke-linecap="round"><g transform="translate(623.1666666666667 310.83333333333394) rotate(0 -142.22939717844122 2.143799460679247)"><path d="M-0.1 0.17 C-47.44 1.03, -237.04 3.36, -284.36 4.12" stroke="#000000" stroke-width="1.5" fill="none" stroke-dasharray="1.5 7"></path></g><g transform="translate(623.1666666666667 310.83333333333394) rotate(0 -142.22939717844122 2.143799460679247)"><path d="M-256.04 -5.46 C-263.4 -2.01, -270.01 -2.06, -284.51 3.5" stroke="#000000" stroke-width="1.5" fill="none" stroke-dasharray="1.5 5"></path></g><g transform="translate(623.1666666666667 310.83333333333394) rotate(0 -142.22939717844122 2.143799460679247)"><path d="M-255.75 15.06 C-263.01 12.94, -269.7 7.31, -284.51 3.5" stroke="#000000" stroke-width="1.5" fill="none" stroke-dasharray="1.5 5"></path></g></g><g stroke-linecap="round"><g transform="translate(623.1666666666667 244.58333333333394) rotate(0 -142.23120053932064 2.6937664501367635)"><path d="M0.17 0.64 C-47.1 1.45, -237.26 4.36, -284.63 4.74" stroke="#000000" stroke-width="1.5" fill="none" stroke-dasharray="1.5 7"></path></g><g transform="translate(623.1666666666667 244.58333333333394) rotate(0 -142.23120053932064 2.6937664501367635)"><path d="M-255.49 -5.24 C-260.87 -1.94, -269.77 -1.48, -285.25 5.32" stroke="#000000" stroke-width="1.5" fill="none" stroke-dasharray="1.5 5"></path></g><g transform="translate(623.1666666666667 244.58333333333394) rotate(0 -142.23120053932064 2.6937664501367635)"><path d="M-255.24 15.28 C-260.65 14.23, -269.61 10.33, -285.25 5.32" stroke="#000000" stroke-width="1.5" fill="none" stroke-dasharray="1.5 5"></path></g></g><g stroke-linecap="round"><g transform="translate(624.4166666666667 152.08333333333394) rotate(0 -141.681233549863 2.5503145582972593)"><path d="M0.64 0.37 C-46.67 1.13, -236.27 4.18, -284.01 4.73" stroke="#000000" stroke-width="1.5" fill="none" stroke-dasharray="1.5 7"></path></g><g transform="translate(624.4166666666667 152.08333333333394) rotate(0 -141.681233549863 2.5503145582972593)"><path d="M-255.34 -4.27 C-262.49 -3.96, -272.45 -0.19, -283.43 4.95" stroke="#000000" stroke-width="1.5" fill="none" stroke-dasharray="1.5 5"></path></g><g transform="translate(624.4166666666667 152.08333333333394) rotate(0 -141.681233549863 2.5503145582972593)"><path d="M-255.05 16.25 C-262.31 10.58, -272.36 8.38, -283.43 4.95" stroke="#000000" stroke-width="1.5" fill="none" stroke-dasharray="1.5 5"></path></g></g></svg>