<svg version="1.1" xmlns="http://www.w3.org/2000/svg" viewBox="0 0 706 430.19222889139655" width="706" height="430.19222889139655">
  <!-- svg-source:excalidraw -->
  
  <defs>
    <style>
      @font-face {
        font-family: "Virgil";
        src: url("https://excalidraw.com/Virgil.woff2");
      }
      @font-face {
        font-family: "Cascadia";
        src: url("https://excalidraw.com/Cascadia.woff2");
      }
    </style>
  </defs>
  <rect x="0" y="0" width="706" height="430.19222889139655" fill="#ffffff"></rect><g transform="translate(10 10) rotate(0 21 13)"><text x="0" y="18" font-family="Virgil, Segoe UI Emoji" font-size="20px" fill="#000000" text-anchor="start" style="white-space: pre;" direction="ltr">user</text></g><g transform="translate(142 16) rotate(0 25.5 13)"><text x="0" y="18" font-family="Virgil, Segoe UI Emoji" font-size="20px" fill="#000000" text-anchor="start" style="white-space: pre;" direction="ltr">client</text></g><g transform="translate(303 15) rotate(0 33 13)"><text x="0" y="18" font-family="Virgil, Segoe UI Emoji" font-size="20px" fill="#000000" text-anchor="start" style="white-space: pre;" direction="ltr">service</text></g><g transform="translate(490 28) rotate(0 13.5 13)"><text x="0" y="18" font-family="Virgil, Segoe UI Emoji" font-size="20px" fill="#000000" text-anchor="start" style="white-space: pre;" direction="ltr">OS</text></g><g stroke-linecap="round"><g transform="translate(51.98941627162509 119.84368605542807) rotate(0 47.14360117459205 -1.9558092080741858)"><path d="M0.29 -0.24 C15.91 -0.48, 77.38 -1.66, 93.08 -1.84 M-1.01 -1.41 C15.03 -1.98, 79.48 -3.39, 95.3 -3.67" stroke="#000000" stroke-width="1" fill="none"></path></g><g transform="translate(51.98941627162509 119.84368605542807) rotate(0 47.14360117459205 -1.9558092080741858)"><path d="M66.93 5.61 C75.27 5.12, 83.1 2.47, 96.52 -3.49 M67.33 6.35 C73.49 5.81, 79.56 2.1, 96.17 -3.66" stroke="#000000" stroke-width="1" fill="none"></path></g><g transform="translate(51.98941627162509 119.84368605542807) rotate(0 47.14360117459205 -1.9558092080741858)"><path d="M66.51 -14.91 C74.89 -10.28, 82.82 -7.81, 96.52 -3.49 M66.91 -14.17 C73.09 -10.24, 79.25 -9.5, 96.17 -3.66" stroke="#000000" stroke-width="1" fill="none"></path></g></g><g transform="translate(70 82) rotate(0 27.5 13)"><text x="0" y="18" font-family="Virgil, Segoe UI Emoji" font-size="20px" fill="#000000" text-anchor="start" style="white-space: pre;" direction="ltr">start</text></g><g stroke-linecap="round"><g transform="translate(179 126) rotate(0 67.50225991360378 -0.5896228186786061)"><path d="M0.48 1.03 C23.3 0.75, 113.13 -1.68, 135.73 -2.21 M-0.73 0.53 C22.1 0.48, 112.4 -0.55, 135.17 -0.78" stroke="#000000" stroke-width="1" fill="none"></path></g><g transform="translate(179 126) rotate(0 67.50225991360378 -0.5896228186786061)"><path d="M108.81 11 C112.45 9.37, 118.22 4.19, 135.24 0.48 M107.53 10.13 C115.99 6.8, 124.36 2.37, 134.46 -1.62" stroke="#000000" stroke-width="1" fill="none"></path></g><g transform="translate(179 126) rotate(0 67.50225991360378 -0.5896228186786061)"><path d="M108.59 -9.52 C112.18 -7.01, 118 -8.06, 135.24 0.48 M107.31 -10.39 C115.72 -7.21, 124.16 -5.14, 134.46 -1.62" stroke="#000000" stroke-width="1" fill="none"></path></g></g><g stroke-linecap="round"><g transform="translate(349.33333333333326 123.9125054265653) rotate(0 66.14276364006759 1.2109177721648052)"><path d="M-0.88 -0.8 C21.41 -0.55, 110.95 1.41, 133.16 1.99 M0.86 1.39 C23.12 1.76, 110.84 2.78, 132.64 3.22" stroke="#000000" stroke-width="1" fill="none"></path></g><g transform="translate(349.33333333333326 123.9125054265653) rotate(0 66.14276364006759 1.2109177721648052)"><path d="M102.96 14.41 C110.41 10.9, 118.69 10.01, 132.95 5.16 M105.29 12.18 C114.95 10.2, 124.43 7.29, 132.43 4.09" stroke="#000000" stroke-width="1" fill="none"></path></g><g transform="translate(349.33333333333326 123.9125054265653) rotate(0 66.14276364006759 1.2109177721648052)"><path d="M103.28 -6.11 C110.73 -4.46, 118.93 -0.18, 132.95 5.16 M105.61 -8.34 C115.18 -3.2, 124.55 1.02, 132.43 4.09" stroke="#000000" stroke-width="1" fill="none"></path></g></g><g stroke-linecap="round"><g transform="translate(652 60) rotate(0 -2.1050692065665544 178.99694939190834)"><path d="M0.08 0.31 C-0.75 60.03, -3.7 298.85, -4.29 358.56 M-1.34 -0.57 C-1.84 58.82, -1.53 297.44, -2.02 357" stroke="#000000" stroke-width="1" fill="none"></path></g></g><g transform="translate(624 25) rotate(0 36 13)"><text x="0" y="18" font-family="Virgil, Segoe UI Emoji" font-size="20px" fill="#000000" text-anchor="start" style="white-space: pre;" direction="ltr">process</text></g><g transform="translate(217 101) rotate(0 27.5 13)"><text x="0" y="18" font-family="Virgil, Segoe UI Emoji" font-size="20px" fill="#000000" text-anchor="start" style="white-space: pre;" direction="ltr">start</text></g><g transform="translate(350.33333333333326 92.66666666666652) rotate(0 69 13)"><text x="0" y="18" font-family="Virgil, Segoe UI Emoji" font-size="20px" fill="#000000" text-anchor="start" style="white-space: pre;" direction="ltr">start process</text></g><g stroke-linecap="round"><g transform="translate(516 129.71408348502212) rotate(0 58.43899551940723 2.0117066194653717)"><path d="M-0.45 0.17 C19.05 0.78, 97.54 4.17, 117.33 4.81 M1.52 -0.78 C20.79 -0.03, 96.77 1.93, 116.16 2.92" stroke="#000000" stroke-width="1" fill="none"></path></g><g transform="translate(516 129.71408348502212) rotate(0 58.43899551940723 2.0117066194653717)"><path d="M87.9 11.43 C97.64 10.12, 105.68 6.12, 117.75 2.16 M88.39 11.64 C96.62 9.08, 105.59 6.17, 116.75 2.25" stroke="#000000" stroke-width="1" fill="none"></path></g><g transform="translate(516 129.71408348502212) rotate(0 58.43899551940723 2.0117066194653717)"><path d="M88.65 -9.07 C98.34 -3.65, 106.13 -0.92, 117.75 2.16 M89.14 -8.87 C97.14 -4.87, 105.87 -1.22, 116.75 2.25" stroke="#000000" stroke-width="1" fill="none"></path></g></g><g transform="translate(545 104) rotate(0 46 13)"><text x="0" y="18" font-family="Virgil, Segoe UI Emoji" font-size="20px" fill="#000000" text-anchor="start" style="white-space: pre;" direction="ltr">fork/exec</text></g><g stroke-linecap="round"><g transform="translate(486.14317152574654 148.8342930075247) rotate(0 -70.50602512285116 1.1726130548724996)"><path d="M1.14 -1.17 C-22.5 -0.79, -118.42 1.69, -142.16 2.1 M0.28 0.83 C-22.97 1.41, -116.24 3.31, -139.97 3.51" stroke="#000000" stroke-width="1" fill="none"></path></g><g transform="translate(486.14317152574654 148.8342930075247) rotate(0 -70.50602512285116 1.1726130548724996)"><path d="M-113.89 -8.86 C-120.07 -4.19, -129.18 -2.34, -141.45 3.04 M-111.52 -7.04 C-120.21 -4.66, -126.62 -2.15, -140.49 2.78" stroke="#000000" stroke-width="1" fill="none"></path></g><g transform="translate(486.14317152574654 148.8342930075247) rotate(0 -70.50602512285116 1.1726130548724996)"><path d="M-113.57 11.66 C-119.82 10.68, -129.01 6.88, -141.45 3.04 M-111.2 13.48 C-120.13 10.44, -126.62 7.53, -140.49 2.78" stroke="#000000" stroke-width="1" fill="none"></path></g></g><g stroke-linecap="round"><g transform="translate(318 151) rotate(0 -65.99496081397871 2.856548434803301)"><path d="M-0.63 0.48 C-22.73 1.38, -110.14 4.27, -132.18 5.01 M1.23 -0.31 C-21.07 0.73, -111.28 5.04, -133.22 6.03" stroke="#000000" stroke-width="1" fill="none"></path></g><g transform="translate(318 151) rotate(0 -65.99496081397871 2.856548434803301)"><path d="M-104.74 -5.84 C-116.47 -3.28, -125.89 4.02, -132.95 4.81 M-105.98 -5.2 C-114.66 -1.91, -126 2.82, -134.13 5.29" stroke="#000000" stroke-width="1" fill="none"></path></g><g transform="translate(318 151) rotate(0 -65.99496081397871 2.856548434803301)"><path d="M-103.79 14.66 C-115.77 10.37, -125.52 10.83, -132.95 4.81 M-105.02 15.3 C-113.99 11.15, -125.67 8.43, -134.13 5.29" stroke="#000000" stroke-width="1" fill="none"></path></g></g><g stroke-linecap="round"><g transform="translate(153 172) rotate(0 -51.872844869578216 1.787011635093961)"><path d="M0.2 0.47 C-16.91 0.89, -85.79 2.15, -103.33 2.73 M-1.16 -0.32 C-18.31 0.21, -87.01 3.52, -103.94 3.9" stroke="#000000" stroke-width="1" fill="none"></path></g><g transform="translate(153 172) rotate(0 -51.872844869578216 1.787011635093961)"><path d="M-75.36 -6.33 C-84.1 -6.42, -88.81 -1.7, -105.14 2.11 M-75.25 -8.33 C-85.96 -2.85, -94.61 0.59, -104.33 4.12" stroke="#000000" stroke-width="1" fill="none"></path></g><g transform="translate(153 172) rotate(0 -51.872844869578216 1.787011635093961)"><path d="M-74.6 14.18 C-83.57 9.08, -88.47 8.8, -105.14 2.11 M-74.49 12.18 C-85.63 11.06, -94.52 7.91, -104.33 4.12" stroke="#000000" stroke-width="1" fill="none"></path></g></g><g transform="translate(83 180) rotate(0 27.5 13)"><text x="0" y="18" font-family="Virgil, Segoe UI Emoji" font-size="20px" fill="#000000" text-anchor="start" style="white-space: pre;" direction="ltr">UUID</text></g><g transform="translate(410 155) rotate(0 20 13)"><text x="0" y="18" font-family="Virgil, Segoe UI Emoji" font-size="20px" fill="#000000" text-anchor="start" style="white-space: pre;" direction="ltr">PID</text></g><g transform="translate(233 161) rotate(0 27.5 13)"><text x="0" y="18" font-family="Virgil, Segoe UI Emoji" font-size="20px" fill="#000000" text-anchor="start" style="white-space: pre;" direction="ltr">UUID</text></g><g stroke-linecap="round"><g transform="translate(333.66666666666674 60) rotate(0 -1.356025932054024 178.78644406188602)"><path d="M-0.72 0.31 C-1.26 60.16, -2.6 298.74, -3.07 358.14 M1.11 -0.57 C0.43 59.01, -2.91 296.66, -3.82 356.36" stroke="#000000" stroke-width="1" fill="none"></path></g></g><g stroke-linecap="round"><g transform="translate(163.66666666666674 61.66666666666663) rotate(0 -1.299421232780503 178.6879313221932)"><path d="M-0.44 -0.82 C-1.06 59, -3.76 298.59, -4.13 358.19 M1.53 1.37 C1.34 60.91, -1.02 297.03, -1.78 356.44" stroke="#000000" stroke-width="1" fill="none"></path></g></g><g stroke-linecap="round"><g transform="translate(32 61.66666666666663) rotate(0 -1.7755053216685042 178.39595107505414)"><path d="M0.22 -1.12 C-0.31 58.37, -2.24 296.89, -3.04 356.76 M-1.13 0.91 C-1.78 60.55, -3.58 298.71, -3.77 357.91" stroke="#000000" stroke-width="1" fill="none"></path></g></g><g stroke-linecap="round" transform="translate(22 110) rotate(0 10.5 43)"><path d="M-1.59 -0.74 L22.6 -1.95 L22.43 87.8 L0.5 87.14" stroke="none" stroke-width="0" fill="#ffffffff"></path><path d="M-1.98 1.05 C8.29 -0.96, 15.87 0.23, 19.56 1.54 M0.63 -0.92 C4.53 0.81, 11.57 0.08, 20.83 0.42 M20.39 0.15 C20.81 28.07, 20.03 57.46, 22.09 87.15 M21.33 0.49 C21.3 20.41, 20.28 42.8, 21.58 85.65 M19.56 85.41 C13.88 84.83, 3.42 86.56, 1.31 87.09 M20.43 85.78 C14.9 85.88, 9.8 86.45, 0.55 85.91 M-1.5 86.58 C0.48 66.19, 1.82 42.02, -0.41 -1.92 M-0.72 86.37 C-0.72 65.42, 0.04 43.49, 0.66 0.45" stroke="#000000" stroke-width="1" fill="none"></path></g><g stroke-linecap="round" transform="translate(157 113) rotate(0 10.5 34.5)"><path d="M-0.89 -1.01 L20.39 0.49 L20.6 67.44 L0.93 69.73" stroke="none" stroke-width="0" fill="#ffffffff"></path><path d="M-1.43 0.7 C5.64 -0.57, 13.16 1.26, 20.79 1.65 M0.95 0.47 C5.95 -0.01, 11.71 -0.73, 20.2 0.4 M19.5 1.5 C19.6 27.09, 22.76 52.49, 21.49 68.47 M20.04 0.45 C19.51 23.01, 20.98 46.37, 20.86 69.96 M20.93 70.34 C15.31 68.77, 8.18 69.29, 0.9 68.4 M20.49 69.86 C12.51 69.75, 4.52 68.81, 0.94 68.91 M-0.9 69.34 C-1.09 40.65, -0.23 17.77, -1.52 1.09 M0.9 68.46 C-0.75 50.57, -0.1 34.6, -0.24 0.49" stroke="#000000" stroke-width="1" fill="none"></path></g><g stroke-linecap="round" transform="translate(325 123) rotate(0 7.5 15)"><path d="M1.13 0.62 L16.97 1.15 L16.34 29.95 L0.63 31.94" stroke="none" stroke-width="0" fill="#ffffffff"></path><path d="M-1.26 -1.04 C3.61 0.84, 6.21 0.11, 14.65 -1.03 M-0.05 0.67 C5.36 -0.19, 11.61 -0.67, 14.93 -0.15 M14.66 0.03 C13.23 6.86, 16.59 16.7, 15.06 28.88 M14.8 0.3 C14.66 9.85, 14.75 21.37, 14.38 30.06 M14.49 29.14 C8.67 29.47, 4.8 30.15, 1.13 29.53 M14.67 30.08 C10.2 29.47, 6.46 30, 0.73 30.25 M0.95 31.03 C1.21 16.57, -0.82 8.52, -1.02 0.85 M-0.76 30.15 C0.03 19.95, 0.77 12.51, 0.18 -0.64" stroke="#000000" stroke-width="1" fill="none"></path></g><g stroke-linecap="round" transform="translate(639 135) rotate(0 13.333333333333371 93.83333333333331)"><path d="M-0.43 -1.33 L25.78 -0.66 L28.53 188.54 L-1.01 187.6" stroke="none" stroke-width="0" fill="#ffffffff"></path><path d="M1.24 0.48 C7.54 -1.31, 15.84 -1.81, 27.2 -1.3 M-0.05 -0.16 C6.39 -1.06, 12.19 0.33, 26.72 -0.08 M24.97 0.57 C27.41 53.37, 28.5 108.64, 25.56 189.51 M26.88 0.41 C24.81 56.09, 25.44 113.17, 26.29 187.81 M26.08 187.6 C21.19 187.03, 12.94 187.89, -0.65 189.22 M26.39 187.51 C20.58 186.95, 13.73 187.39, 0.46 187.41 M-0.26 187 C0.42 114.27, -0.64 40.29, -0.07 -1.53 M-0.26 188.66 C0.88 143.71, 1.46 100.43, 0.66 -0.14" stroke="#000000" stroke-width="1" fill="none"></path></g><g stroke-linecap="round"><g transform="translate(503.66666666666674 61.66666666666663) rotate(0 -1.0614559767116134 178.47935721308784)"><path d="M0.74 -0.34 C0.51 58.99, -1.61 297.63, -2.44 357.16 M-0.33 -1.57 C-0.54 58.45, -2.62 298.62, -2.86 358.53" stroke="#000000" stroke-width="1" fill="none"></path></g></g><g stroke-linecap="round" transform="translate(491 127) rotate(0 10.5 13)"><path d="M-1.22 -1.2 L19.57 -1.67 L22.4 27.25 L-1.92 27.38" stroke="none" stroke-width="0" fill="#ffffffff"></path><path d="M-0.47 -0.88 C6.37 1.29, 10.75 -0.99, 22.95 1.91 M0.7 0.39 C8.41 0.04, 14.28 0.22, 20.3 0.85 M21.23 -1 C21.46 6.68, 20.66 13.67, 21.32 25.32 M20.11 -0.78 C20.98 8.45, 20.14 15.83, 21.06 25.48 M22.85 25.89 C13.97 24.7, 10.09 24.72, 1.65 25.13 M20.99 26.65 C16.13 26.45, 13.32 27.02, 0.15 25.82 M1.64 24.03 C-0.96 19.8, 1.61 13.24, -0.35 1.83 M0.63 26.17 C-0.42 18.91, 0.6 11.36, -0.07 0.48" stroke="#000000" stroke-width="1" fill="none"></path></g></svg>