<svg version="1.1" xmlns="http://www.w3.org/2000/svg" viewBox="0 0 695.1363636363637 437.64838877672355" width="695.1363636363637" height="437.64838877672355">
  <!-- svg-source:excalidraw -->
  
  <defs>
    <style>
      @font-face {
        font-family: "Virgil";
        src: url("https://excalidraw.com/Virgil.woff2");
      }
      @font-face {
        font-family: "Cascadia";
        src: url("https://excalidraw.com/Cascadia.woff2");
      }
    </style>
  </defs>
  <rect x="0" y="0" width="695.1363636363637" height="437.64838877672355" fill="#ffffff"></rect><g transform="translate(10 10) rotate(0 21 13)"><text x="0" y="18" font-family="Virgil, Segoe UI Emoji" font-size="20px" fill="#000000" text-anchor="start" style="white-space: pre;" direction="ltr">user</text></g><g transform="translate(142 16) rotate(0 25.5 13)"><text x="0" y="18" font-family="Virgil, Segoe UI Emoji" font-size="20px" fill="#000000" text-anchor="start" style="white-space: pre;" direction="ltr">client</text></g><g transform="translate(303 15) rotate(0 33 13)"><text x="0" y="18" font-family="Virgil, Segoe UI Emoji" font-size="20px" fill="#000000" text-anchor="start" style="white-space: pre;" direction="ltr">service</text></g><g transform="translate(490 28) rotate(0 13.5 13)"><text x="0" y="18" font-family="Virgil, Segoe UI Emoji" font-size="20px" fill="#000000" text-anchor="start" style="white-space: pre;" direction="ltr">OS</text></g><g transform="translate(45.14285714285711 141.57142857142867) rotate(0 55.5 26)"><text x="0" y="18" font-family="Virgil, Segoe UI Emoji" font-size="20px" fill="#000000" text-anchor="start" style="white-space: pre;" direction="ltr">get status</text><text x="0" y="44" font-family="Virgil, Segoe UI Emoji" font-size="20px" fill="#000000" text-anchor="start" style="white-space: pre;" direction="ltr">&lt;UUID&gt;</text></g><g transform="translate(206.97619047619048 152.09523809523876) rotate(0 55.5 26)"><text x="0" y="18" font-family="Virgil, Segoe UI Emoji" font-size="20px" fill="#000000" text-anchor="start" style="white-space: pre;" direction="ltr">get status</text><text x="0" y="44" font-family="Virgil, Segoe UI Emoji" font-size="20px" fill="#000000" text-anchor="start" style="white-space: pre;" direction="ltr">&lt;UUID&gt;</text></g><g stroke-linecap="round"><g transform="translate(28.904761904761926 63.66666666666674) rotate(0 -1.5964176639029972 178.0928852120121)"><path d="M1.15 -0.46 C0.38 59.19, -3.68 297.06, -4.34 356.78 M0.29 -1.75 C-0.13 58.15, -1.5 298.37, -2.09 357.94" stroke="#000000" stroke-width="1" fill="none"></path></g></g><g stroke-linecap="round"><g transform="translate(157.2380952380954 55.33333333333326) rotate(0 -1.88290181015617 179.0875350540349)"><path d="M1.07 0.67 C0.57 60.48, -3.04 298.79, -3.74 358.2 M0.17 -0.03 C-0.45 59.5, -4.19 296.74, -4.83 356.45" stroke="#000000" stroke-width="1" fill="none"></path></g></g><g stroke-linecap="round"><g transform="translate(333.90476190476204 62) rotate(0 -2.4058422549674674 179.30732142264344)"><path d="M-0.2 0.79 C-0.81 60.51, -4.05 299.05, -4.62 358.45 M-1.76 0.16 C-1.94 59.55, -2.07 297.14, -2.51 356.83" stroke="#000000" stroke-width="1" fill="none"></path></g></g><g stroke-linecap="round"><g transform="translate(502.2380952380954 70.33333333333326) rotate(0 -1.0656159380544636 178.08638750950206)"><path d="M0.77 -1.14 C0.48 58.42, -1.58 296.79, -2.47 356.37 M-0.28 0.87 C-0.59 60.62, -2.58 297.95, -2.9 357.32" stroke="#000000" stroke-width="1" fill="none"></path></g></g><g stroke-linecap="round" transform="translate(153.9047619047618 193.2380952380954) rotate(0 10.5 34.5)"><path d="M-1.81 0.63 L20.44 0.15 L20.23 69.99 L0.67 69.19" stroke="none" stroke-width="0" fill="#ffffffff"></path><path d="M-1.72 -1.91 C2.86 -0.37, 10.18 -0.76, 19.45 -0.18 M-0.76 -0.47 C6.96 0.67, 13.55 -0.54, 21.4 -0.75 M21.91 -1.68 C21.2 17.59, 19.28 32.98, 22.55 70.25 M21.7 0.35 C21.35 25.74, 21.88 50.93, 21.61 68.33 M20.82 67.13 C14.02 68.61, 7.03 69.19, 1.82 68.86 M20.41 68.13 C13.13 69.72, 4.54 69.09, -0.52 69.75 M-1.46 67.15 C-0.09 51.37, -0.96 32.54, 1.87 1.48 M0.03 68.31 C-0.11 51.4, 1.05 33.68, 0.35 -0.35" stroke="#000000" stroke-width="1" fill="none"></path></g><g stroke-linecap="round"><g transform="translate(48.894178176386845 200.08178129352336) rotate(0 47.1775293806009 -0.9366473559788346)"><path d="M-1.03 -1.15 C14.66 -1.42, 77.14 -2.43, 93.13 -2.74 M0.63 0.86 C16.78 0.87, 79.72 -0.91, 95.39 -1.38" stroke="#000000" stroke-width="1" fill="none"></path></g><g transform="translate(48.894178176386845 200.08178129352336) rotate(0 47.1775293806009 -0.9366473559788346)"><path d="M65.58 8.22 C73.09 9.05, 78.74 3.57, 95.21 -0.75 M67.03 9.69 C78.36 5.48, 87.39 2.17, 94.64 -1.97" stroke="#000000" stroke-width="1" fill="none"></path></g><g transform="translate(48.894178176386845 200.08178129352336) rotate(0 47.1775293806009 -0.9366473559788346)"><path d="M65 -12.29 C72.44 -7.01, 78.22 -8.04, 95.21 -0.75 M66.45 -10.82 C77.87 -7.5, 87.12 -3.27, 94.64 -1.97" stroke="#000000" stroke-width="1" fill="none"></path></g></g><g stroke-linecap="round" transform="translate(321.9047619047618 203.2380952380954) rotate(0 7.5 15)"><path d="M0.15 -0.77 L15.99 0.67 L15.19 31.75 L0.05 28.02" stroke="none" stroke-width="0" fill="#ffffffff"></path><path d="M-0.42 1.15 C2.5 -1.06, 6.29 0.58, 16.01 -0.81 M0.42 -0.27 C2.87 0.3, 6.16 -0.44, 14.86 0.03 M15.97 -1.59 C14.48 11.92, 16 22.16, 16.7 28.37 M15.09 0.3 C14.74 11.72, 14.43 22.56, 15.24 29.73 M14.75 30 C10.82 31.37, 6.16 31.38, 0.68 28.67 M15.68 30 C11.59 29.67, 8.32 29.87, -0.64 30.61 M1.34 28.44 C1.74 25.07, 1.75 15.48, -0.38 -1.55 M-0.06 30.92 C-0.02 21.25, -0.14 10.89, 0.32 -0.28" stroke="#000000" stroke-width="1" fill="none"></path></g><g stroke-linecap="round" transform="translate(487.9047619047618 207.2380952380954) rotate(0 10.5 13)"><path d="M-0.77 0.99 L21.67 0.19 L22.75 26.05 L-1.98 25.51" stroke="none" stroke-width="0" fill="#ffffffff"></path><path d="M1.53 -0.95 C2.74 -0.12, 9.2 1.4, 19.91 -1.52 M-0.35 -0.65 C5.72 -0.86, 10.05 -0.3, 21.04 0.45 M19.41 -0.26 C22.6 6.87, 22.48 12.93, 19.37 27.41 M21.3 -0.36 C21.55 8.05, 21.27 17.68, 20.73 25.91 M21.01 26.25 C18.48 25.83, 14.16 26.87, -1.78 24.83 M21 26.28 C16 26.94, 11.78 25.33, 0.81 25.27 M-1.56 27.46 C1.96 22.08, -0.83 14.83, -1.55 0.07 M0.92 25.77 C0.41 19.64, -0.84 14.29, -0.28 0.07" stroke="#000000" stroke-width="1" fill="none"></path></g><g stroke-linecap="round"><g transform="translate(175.9047619047618 206.2380952380954) rotate(0 68.11574422015809 -0.18174241393342072)"><path d="M0.92 -0.57 C23.41 -0.87, 111.66 -2, 134.07 -2.11 M-0.06 1.74 C22.88 1.67, 113.81 0.19, 136.29 -0.62" stroke="#000000" stroke-width="1" fill="none"></path></g><g transform="translate(175.9047619047618 206.2380952380954) rotate(0 68.11574422015809 -0.18174241393342072)"><path d="M107.4 8.77 C114.55 8.25, 122.41 4.05, 134.77 -1.55 M107.71 10.72 C115.96 6.54, 124.93 3.87, 136.74 -1.46" stroke="#000000" stroke-width="1" fill="none"></path></g><g transform="translate(175.9047619047618 206.2380952380954) rotate(0 68.11574422015809 -0.18174241393342072)"><path d="M106.9 -11.75 C114.11 -7.62, 122.08 -7.15, 134.77 -1.55 M107.2 -9.8 C115.72 -7.8, 124.84 -4.29, 136.74 -1.46" stroke="#000000" stroke-width="1" fill="none"></path></g></g><g stroke-linecap="round"><g transform="translate(346.23809523809507 204.1506006646605) rotate(0 65.83466179528 1.0127914092440733)"><path d="M-0.57 -0.93 C21.52 -0.59, 109.95 2.48, 132.24 2.96 M1.33 1.19 C23.29 1.08, 109.32 0.75, 131.24 1.03" stroke="#000000" stroke-width="1" fill="none"></path></g><g transform="translate(346.23809523809507 204.1506006646605) rotate(0 65.83466179528 1.0127914092440733)"><path d="M101.46 11.02 C111.23 9.91, 117.2 4.29, 130.31 1.05 M103.41 10.45 C112.49 7.58, 123.15 4.61, 130.4 1.2" stroke="#000000" stroke-width="1" fill="none"></path></g><g transform="translate(346.23809523809507 204.1506006646605) rotate(0 65.83466179528 1.0127914092440733)"><path d="M101.53 -9.5 C111.44 -5.03, 117.38 -5.08, 130.31 1.05 M103.48 -10.07 C112.46 -5.64, 123.1 -1.32, 130.4 1.2" stroke="#000000" stroke-width="1" fill="none"></path></g></g><g transform="translate(346.7619047619047 164.80952380952385) rotate(0 60.5 13)"><text x="0" y="18" font-family="Virgil, Segoe UI Emoji" font-size="20px" fill="#000000" text-anchor="start" style="white-space: pre;" direction="ltr">/proc/&lt;PID&gt;</text></g><g stroke-linecap="round"><g transform="translate(483.04793343050835 229.07238824562) rotate(0 -71.36685115574392 1.3248577046115315)"><path d="M0.01 0.66 C-23.43 1.02, -118.13 1.43, -141.57 1.56 M-1.44 -0.03 C-25 0.51, -119.45 2.29, -142.75 2.68" stroke="#000000" stroke-width="1" fill="none"></path></g><g transform="translate(483.04793343050835 229.07238824562) rotate(0 -71.36685115574392 1.3248577046115315)"><path d="M-113.64 -8.79 C-122.38 -4.88, -128.84 -4.44, -143.11 2.76 M-114.26 -8.88 C-124.64 -3.54, -133.55 0.12, -141.9 1.87" stroke="#000000" stroke-width="1" fill="none"></path></g><g transform="translate(483.04793343050835 229.07238824562) rotate(0 -71.36685115574392 1.3248577046115315)"><path d="M-113.27 11.72 C-121.99 11.04, -128.54 6.88, -143.11 2.76 M-113.89 11.64 C-124.23 9.89, -133.27 6.46, -141.9 1.87" stroke="#000000" stroke-width="1" fill="none"></path></g></g><g stroke-linecap="round"><g transform="translate(314.9047619047618 231.23809523809587) rotate(0 -66.05941402986645 2.3909171378659266)"><path d="M0.66 -0.43 C-21.37 0.65, -110.52 5.52, -132.78 6.48 M-0.45 -1.69 C-22.05 -0.98, -108.81 3.28, -130.48 4.6" stroke="#000000" stroke-width="1" fill="none"></path></g><g transform="translate(314.9047619047618 231.23809523809587) rotate(0 -66.05941402986645 2.3909171378659266)"><path d="M-103.59 -8.47 C-109.09 -5.52, -118.06 -1.41, -130.41 5.51 M-103.68 -7.29 C-108.05 -3.86, -114.07 -1.1, -131.3 5.31" stroke="#000000" stroke-width="1" fill="none"></path></g><g transform="translate(314.9047619047618 231.23809523809587) rotate(0 -66.05941402986645 2.3909171378659266)"><path d="M-102.49 12.03 C-108.26 9.79, -117.51 8.7, -130.41 5.51 M-102.58 13.2 C-107.22 12.21, -113.48 10.55, -131.3 5.31" stroke="#000000" stroke-width="1" fill="none"></path></g></g><g stroke-linecap="round"><g transform="translate(143.54449468936434 256.65732537464146) rotate(0 -48.140859941952755 3.4966931481130814)"><path d="M-0.43 -0.78 C-16.62 0.22, -80.82 5.35, -97.14 6.71 M1.55 1.42 C-14.76 2.49, -81.61 6.58, -97.83 7.78" stroke="#000000" stroke-width="1" fill="none"></path></g><g transform="translate(143.54449468936434 256.65732537464146) rotate(0 -48.140859941952755 3.4966931481130814)"><path d="M-71.69 -3.54 C-80.07 -1.96, -87.21 2.94, -96.93 6.1 M-70.52 -3.55 C-78.39 0, -86.86 2.3, -97.13 8.13" stroke="#000000" stroke-width="1" fill="none"></path></g><g transform="translate(143.54449468936434 256.65732537464146) rotate(0 -48.140859941952755 3.4966931481130814)"><path d="M-70.33 16.94 C-79.23 12.34, -86.78 11.08, -96.93 6.1 M-69.16 16.92 C-77.56 13.99, -86.46 9.8, -97.13 8.13" stroke="#000000" stroke-width="1" fill="none"></path></g></g><g stroke-linecap="round" transform="translate(18.904761904761813 190.2380952380954) rotate(0 10.5 43)"><path d="M1.47 -0.94 L20.79 -1.69 L21.22 87.44 L0.47 86.33" stroke="none" stroke-width="0" fill="#ffffffff"></path><path d="M0.79 -1.49 C6.28 -0.23, 15 1.05, 19.32 0.33 M0.78 0.63 C8.03 0.88, 13.82 0.73, 21.35 -0.24 M22.22 -1.35 C21.91 27.02, 20.72 52.9, 19.13 86 M21.91 -0.07 C21.92 24.8, 20.11 48.11, 20.13 86.36 M19.97 87.51 C12.3 84.34, 6.22 84.59, -1.85 85.32 M21.94 86.74 C12.84 85.97, 4.82 86.19, -0.69 85.76 M0.7 85.3 C-2.6 61.33, -1.35 35.54, -0.77 0.99 M0.02 85.01 C-0.33 57.93, 0.68 29.55, 0.24 -0.11" stroke="#000000" stroke-width="1" fill="none"></path></g><g transform="translate(71.57142857142844 271.9047619047624) rotate(0 34.5 13)"><text x="0" y="18" font-family="Virgil, Segoe UI Emoji" font-size="20px" fill="#000000" text-anchor="start" style="white-space: pre;" direction="ltr">status</text></g><g transform="translate(406.9047619047618 235.23809523809587) rotate(0 24.5 13)"><text x="0" y="18" font-family="Virgil, Segoe UI Emoji" font-size="20px" fill="#000000" text-anchor="start" style="white-space: pre;" direction="ltr">data</text></g><g transform="translate(229.9047619047618 241.23809523809587) rotate(0 34.5 13)"><text x="0" y="18" font-family="Virgil, Segoe UI Emoji" font-size="20px" fill="#000000" text-anchor="start" style="white-space: pre;" direction="ltr">status</text></g><g stroke-linecap="round"><g transform="translate(641.1363636363637 56.828162546080875) rotate(0 -0.5976638217969139 179.30299137581926)"><path d="M-0.36 0.63 C-0.71 60.2, -1.98 297.83, -2.43 357.27 M1.65 -0.09 C1.26 59.69, -1.97 298.93, -2.85 358.7" stroke="#000000" stroke-width="1" fill="none"></path></g></g><g transform="translate(613.1363636363637 21.828162546080875) rotate(0 36 13)"><text x="0" y="18" font-family="Virgil, Segoe UI Emoji" font-size="20px" fill="#000000" text-anchor="start" style="white-space: pre;" direction="ltr">process</text></g><g stroke-linecap="round" transform="translate(628.1363636363637 131.82816254608088) rotate(0 13.333333333333371 93.83333333333326)"><path d="M1.84 0.44 L27.66 -1.91 L27.47 186.09 L-0.45 185.86" stroke="none" stroke-width="0" fill="#ffffffff"></path><path d="M-0.36 0.64 C6.87 -0.33, 15.15 -0.3, 27.2 1.29 M-0.31 -0.76 C9.98 -0.9, 20.59 -0.18, 26.76 -0.06 M27.15 -0.37 C26.33 51.29, 26.75 100.59, 25.78 188.06 M26.39 -0.04 C25.06 52.42, 25.85 103.43, 25.71 188.02 M28.55 187.83 C17.61 187.46, 13 187.02, -1.9 188.15 M26.34 187.93 C17.17 187.63, 9.91 187.14, 0.18 186.79 M0.72 187.39 C-1.62 148.66, -1.24 106.32, -0.44 -1.43 M0.84 187.9 C1.04 119.21, -0.57 49.82, -0.52 -0.19" stroke="#000000" stroke-width="1" fill="none"></path></g></svg>