<svg version="1.1" xmlns="http://www.w3.org/2000/svg" viewBox="0 0 706.0000000000001 786.5561648480593" width="706.0000000000001" height="786.5561648480593">
  <!-- svg-source:excalidraw -->
  
  <defs>
    <style>
      @font-face {
        font-family: "Virgil";
        src: url("https://excalidraw.com/Virgil.woff2");
      }
      @font-face {
        font-family: "Cascadia";
        src: url("https://excalidraw.com/Cascadia.woff2");
      }
    </style>
  </defs>
  <rect x="0" y="0" width="706.0000000000001" height="786.5561648480593" fill="#ffffff"></rect><g stroke-linecap="round"><g transform="translate(30 46) rotate(0 -1.9199734634021297 355.3609481157969)"><path d="M1.14 -0.83 C0.4 117.37, -3.16 591.91, -4.02 710.36 M0.29 1.34 C-0.66 120.21, -4.13 593.35, -4.98 711.56" stroke="#000000" stroke-width="1" fill="none"></path></g></g><g transform="translate(10 10) rotate(0 21 13)"><text x="0" y="18" font-family="Virgil, Segoe UI Emoji" font-size="20px" fill="#000000" text-anchor="start" style="white-space: pre;" direction="ltr">user</text></g><g stroke-linecap="round"><g transform="translate(167 54) rotate(0 -2.5146759566525247 355.08689642718537)"><path d="M-0.02 -0.64 C-0.89 117.81, -3.41 591.25, -4.04 709.87 M-1.5 1.63 C-2.62 120.26, -4.52 592.35, -5.01 710.82" stroke="#000000" stroke-width="1" fill="none"></path></g></g><g transform="translate(142 16) rotate(0 25.5 13)"><text x="0" y="18" font-family="Virgil, Segoe UI Emoji" font-size="20px" fill="#000000" text-anchor="start" style="white-space: pre;" direction="ltr">client</text></g><g stroke-linecap="round"><g transform="translate(331 57) rotate(0 -2.313736922726946 355.76500304660294)"><path d="M-0.04 -1.13 C-0.66 117.49, -3.11 592.3, -3.77 711.08 M-1.52 0.89 C-2.28 119.78, -4.05 594.56, -4.59 712.66" stroke="#000000" stroke-width="1" fill="none"></path></g></g><g transform="translate(303 15) rotate(0 33 13)"><text x="0" y="18" font-family="Virgil, Segoe UI Emoji" font-size="20px" fill="#000000" text-anchor="start" style="white-space: pre;" direction="ltr">service</text></g><g stroke-linecap="round"><g transform="translate(501 65) rotate(0 -2.339111012504418 355.3155592424282)"><path d="M0.23 0.08 C-0.42 118.86, -3.31 593.08, -3.98 711.56 M-1.1 -0.93 C-1.91 117.6, -4.36 590.87, -4.91 709.73" stroke="#000000" stroke-width="1" fill="none"></path></g></g><g transform="translate(490 28) rotate(0 13.5 13)"><text x="0" y="18" font-family="Virgil, Segoe UI Emoji" font-size="20px" fill="#000000" text-anchor="start" style="white-space: pre;" direction="ltr">OS</text></g><g stroke-linecap="round"><g transform="translate(652.0000000000001 60) rotate(0 -1.4951955245528552 356.4668343100044)"><path d="M-0.71 1.07 C-1.19 119.65, -2.91 592.57, -3.45 710.87 M1.12 0.59 C0.58 119.42, -3.14 593.75, -4.11 712.34" stroke="#000000" stroke-width="1" fill="none"></path></g></g><g transform="translate(624.0000000000001 25) rotate(0 36 13)"><text x="0" y="18" font-family="Virgil, Segoe UI Emoji" font-size="20px" fill="#000000" text-anchor="start" style="white-space: pre;" direction="ltr">process</text></g><g stroke-linecap="round" transform="translate(150.33333333333326 377.99999999999955) rotate(0 10.5 74.5)"><path d="M1.57 0.08 L22.84 -1.7 L22.82 148.53 L1.56 150.02" stroke="none" stroke-width="0" fill="#ffffffff"></path><path d="M0.93 0.39 C6.58 0.37, 12.49 -1.05, 19.82 1.79 M-0.09 -0.45 C6.89 0.39, 14.86 -0.68, 20.23 0.37 M22.83 1.29 C20.83 54.17, 21.94 107.91, 20.78 148.26 M21.86 -0.92 C21.16 36.16, 20.11 72.53, 21.37 148.11 M21.82 147.68 C13.65 148.82, 4.27 149.64, -1.16 150.6 M21.22 148.31 C16.07 149.76, 10.34 148.53, -0.07 149.91 M1.46 150.57 C0.44 113.15, -2.49 81.12, 1.08 -1.35 M0.54 149.08 C1.23 108.25, 2 67.92, 0.92 -0.54" stroke="#000000" stroke-width="1" fill="none"></path></g><g stroke-linecap="round"><g transform="translate(37.33333333333337 381.3322475049522) rotate(0 50.5402016157189 -0.9004743812997731)"><path d="M0.56 0.23 C17.49 0.23, 84.91 0.16, 101.69 -0.02 M-0.61 -0.69 C16.15 -1.09, 83.91 -2.16, 100.7 -2.03" stroke="#000000" stroke-width="1" fill="none"></path></g><g transform="translate(37.33333333333337 381.3322475049522) rotate(0 50.5402016157189 -0.9004743812997731)"><path d="M72.96 8.26 C81.56 4.14, 88.78 0.7, 102.49 -1.12 M72.13 8.03 C81.1 5.75, 88.18 1.61, 101.07 -1.37" stroke="#000000" stroke-width="1" fill="none"></path></g><g transform="translate(37.33333333333337 381.3322475049522) rotate(0 50.5402016157189 -0.9004743812997731)"><path d="M72.84 -12.26 C81.48 -10.09, 88.73 -7.24, 102.49 -1.12 M72 -12.49 C81.02 -8.83, 88.13 -7.03, 101.07 -1.37" stroke="#000000" stroke-width="1" fill="none"></path></g></g><g transform="translate(30 345.33333333333303) rotate(0 65 13)"><text x="0" y="18" font-family="Virgil, Segoe UI Emoji" font-size="20px" fill="#000000" text-anchor="start" style="white-space: pre;" direction="ltr">stop &lt;UUID&gt;</text></g><g stroke-linecap="round" transform="translate(318.33333333333337 387.99999999999955) rotate(0 9.999999999999943 70)"><path d="M-1.7 1.82 L19.53 1.56 L21.02 140.68 L-1.37 140.96" stroke="none" stroke-width="0" fill="#ffffffff"></path><path d="M0.37 -0.93 C5.88 -1.16, 15.64 0.92, 19.79 0.02 M0.39 0.35 C5.14 -0.7, 12 0.73, 20.41 -0.45 M19.66 0.33 C19.81 54.58, 20.16 108.42, 19.13 140.72 M20.29 -0.24 C19.5 54.34, 17.83 108.89, 19.28 140.75 M19.66 139.83 C13.66 138.94, 7.97 139.16, -1.47 140.73 M20.68 139.97 C13.02 140.01, 8.04 139.38, 0.34 140.54 M-1.56 138.01 C-0.4 88.84, -2.45 34.98, -1.48 -1.25 M-0.04 140.9 C0.25 91.34, -0.65 41.62, 0.04 0.92" stroke="#000000" stroke-width="1" fill="none"></path></g><g stroke-linecap="round"><g transform="translate(179.44337955638775 394.2613247094937) rotate(0 62.65110561673379 0.15340441690750595)"><path d="M-0.56 -0.63 C20.04 -0.63, 102.63 0.27, 123.52 0.21 M1.35 1.66 C22.35 1.33, 105.37 -1.12, 125.86 -1.35" stroke="#000000" stroke-width="1" fill="none"></path></g><g transform="translate(179.44337955638775 394.2613247094937) rotate(0 62.65110561673379 0.15340441690750595)"><path d="M96.85 8.34 C107.86 7.37, 114.06 3.29, 125.68 -2.24 M97.22 8.74 C105.58 7.21, 112.98 3.25, 126.77 -0.71" stroke="#000000" stroke-width="1" fill="none"></path></g><g transform="translate(179.44337955638775 394.2613247094937) rotate(0 62.65110561673379 0.15340441690750595)"><path d="M96.41 -12.18 C107.59 -7.13, 113.92 -5.19, 125.68 -2.24 M96.78 -11.78 C105.33 -7.9, 112.85 -6.47, 126.77 -0.71" stroke="#000000" stroke-width="1" fill="none"></path></g></g><g stroke-linecap="round"><g transform="translate(350.3333333333336 391.4915402894135) rotate(0 67.59232721043094 0.6892530897121105)"><path d="M-0.63 -0.71 C21.97 -0.27, 113.27 1.71, 135.81 2.08 M1.25 1.54 C23.76 1.67, 113.34 0.03, 135.42 0.25" stroke="#000000" stroke-width="1" fill="none"></path></g><g transform="translate(350.3333333333336 391.4915402894135) rotate(0 67.59232721043094 0.6892530897121105)"><path d="M106.12 12.46 C117.22 7.29, 125.29 4, 134.53 -0.49 M106.52 11.04 C117.45 7.74, 125.87 4.71, 136.07 -0.14" stroke="#000000" stroke-width="1" fill="none"></path></g><g transform="translate(350.3333333333336 391.4915402894135) rotate(0 67.59232721043094 0.6892530897121105)"><path d="M106 -8.06 C117.04 -6.69, 125.15 -3.45, 134.53 -0.49 M106.4 -9.48 C117.44 -5.82, 125.91 -1.9, 136.07 -0.14" stroke="#000000" stroke-width="1" fill="none"></path></g></g><g transform="translate(186.9999999999999 364.33333333333303) rotate(0 65 13)"><text x="0" y="18" font-family="Virgil, Segoe UI Emoji" font-size="20px" fill="#000000" text-anchor="start" style="white-space: pre;" direction="ltr">stop &lt;UUID&gt;</text></g><g transform="translate(375.33333333333326 360.99999999999955) rotate(0 48 13)"><text x="0" y="18" font-family="Virgil, Segoe UI Emoji" font-size="20px" fill="#000000" text-anchor="start" style="white-space: pre;" direction="ltr">kill &lt;PID&gt;</text></g><g stroke-linecap="round" transform="translate(639.0000000000001 135) rotate(0 11.666666666666742 182.16666666666697)"><path d="M-1.71 0.98 L22.6 -1.28 L24.99 362.55 L1.64 364.51" stroke="none" stroke-width="0" fill="#ffffffff"></path><path d="M-0.18 -0.89 C7.33 0.78, 16.82 -1.36, 21.78 0.73 M0.91 0.65 C8.15 -0.06, 17.24 -0.44, 23.22 -0.37 M24.4 -1.15 C23.35 88.08, 22.04 176.41, 23.8 363.22 M23.59 -0.41 C21.97 143.57, 21.63 287.51, 22.97 364.84 M23.77 362.95 C18.21 365.79, 11.46 363.33, -0.15 366.15 M24.07 365.12 C18.44 363.68, 11.6 364.81, 0.54 363.66 M0.68 364.43 C1.85 264.72, 2.81 165.65, 1.15 -0.68 M-0.53 364.9 C-0.24 227, 0.22 88.9, -0.43 0.3" stroke="#000000" stroke-width="1" fill="none"></path></g><g stroke-linecap="round"><g transform="translate(514.0476190476193 405.82539825252525) rotate(0 62.77831100851978 -2.8110716445735306)"><path d="M-0.11 -0.53 C21.11 -1.46, 105.82 -4.5, 127.18 -5.54 M-1.63 1.8 C19.41 0.51, 104.48 -6.13, 126 -7.42" stroke="#000000" stroke-width="1" fill="none"></path></g><g transform="translate(514.0476190476193 405.82539825252525) rotate(0 62.77831100851978 -2.8110716445735306)"><path d="M97.71 4.05 C107.31 1.97, 113.11 -3.81, 126.73 -6.11 M99.24 4.39 C107.82 0.54, 116.78 -3.9, 125.63 -8.01" stroke="#000000" stroke-width="1" fill="none"></path></g><g transform="translate(514.0476190476193 405.82539825252525) rotate(0 62.77831100851978 -2.8110716445735306)"><path d="M96.27 -16.42 C106.29 -12.58, 112.51 -12.43, 126.73 -6.11 M97.81 -16.08 C106.79 -12.97, 116.23 -10.43, 125.63 -8.01" stroke="#000000" stroke-width="1" fill="none"></path></g></g><g transform="translate(551.6666666666666 368.99999999999955) rotate(0 12.5 13)"><text x="0" y="18" font-family="Virgil, Segoe UI Emoji" font-size="20px" fill="#000000" text-anchor="start" style="white-space: pre;" direction="ltr">kill</text></g><g stroke-linecap="round"><g transform="translate(306.33333333333314 526.4072315825424) rotate(0 -64.57884697429819 0.21036914314095156)"><path d="M0.47 0.41 C-21.05 0.45, -108.15 -0.4, -129.62 -0.22 M-0.75 -0.41 C-21.83 -0.21, -105.98 0.84, -127.34 0.83" stroke="#000000" stroke-width="1" fill="none"></path></g><g transform="translate(306.33333333333314 526.4072315825424) rotate(0 -64.57884697429819 0.21036914314095156)"><path d="M-98.53 -10.98 C-107.99 -6.11, -112.31 -3.36, -128.24 2.66 M-99.05 -10.17 C-109.62 -6.23, -120.36 -2.48, -126.98 1.69" stroke="#000000" stroke-width="1" fill="none"></path></g><g transform="translate(306.33333333333314 526.4072315825424) rotate(0 -64.57884697429819 0.21036914314095156)"><path d="M-98.39 9.54 C-107.81 9.17, -112.16 6.68, -128.24 2.66 M-98.91 10.35 C-109.45 6.81, -120.24 3.07, -126.98 1.69" stroke="#000000" stroke-width="1" fill="none"></path></g></g><g stroke-linecap="round"><g transform="translate(135.27532349678302 526.0462594812057) rotate(0 -48.620443709773895 -1.8318269422468347)"><path d="M0.41 -0.81 C-15.79 -1.41, -81.6 -2.77, -97.66 -3.15 M-0.83 1.38 C-16.62 0.37, -79.52 -3.95, -95.43 -5.04" stroke="#000000" stroke-width="1" fill="none"></path></g><g transform="translate(135.27532349678302 526.0462594812057) rotate(0 -48.620443709773895 -1.8318269422468347)"><path d="M-67.96 -14.9 C-73.43 -9.75, -80.93 -9.77, -93.6 -3.75 M-67.15 -13.46 C-74.51 -11.72, -82.1 -8.6, -94.58 -5.96" stroke="#000000" stroke-width="1" fill="none"></path></g><g transform="translate(135.27532349678302 526.0462594812057) rotate(0 -48.620443709773895 -1.8318269422468347)"><path d="M-69.36 5.58 C-74.54 5.33, -81.68 -0.08, -93.6 -3.75 M-68.56 7.01 C-75.52 3.4, -82.74 1.18, -94.58 -5.96" stroke="#000000" stroke-width="1" fill="none"></path></g></g><g stroke-linecap="round" transform="translate(17 374.99999999999955) rotate(0 9.666666666666686 80.5)"><path d="M1.64 0.17 L18.3 0.58 L19.59 162.36 L-1.6 161.96" stroke="none" stroke-width="0" fill="#ffffffff"></path><path d="M-1.5 0.71 C7.82 0.92, 12.24 1.9, 20.58 -0.75 M-0.11 -0.36 C4.9 -0.32, 11.29 0.93, 18.44 0.78 M20.07 -1.77 C20.84 51.55, 20.46 106.81, 18.02 161.93 M18.75 0.8 C18.73 44.83, 19.57 91.35, 18.64 161.39 M19.19 162.76 C10.86 161.54, 6.13 162.31, 1.52 161.91 M19.86 160.35 C14.78 160.35, 10.14 161.59, 0.07 161.13 M1.84 159.91 C0.11 113.37, 0.39 63.87, 1.82 -0.47 M-0.68 161.48 C-1.68 100.65, -1.18 38.68, 0.83 -0.89" stroke="#000000" stroke-width="1" fill="none"></path></g><g stroke-linecap="round"><g transform="translate(346.5454594671702 499.85121376021834) rotate(0 65.45358604295302 0.5602766029119266)"><path d="M0.89 -0.55 C22.35 -0.75, 107.25 -0.61, 128.85 -0.6 M-0.1 1.78 C21.71 1.67, 109.32 0.77, 131 0.56" stroke="#000000" stroke-width="1" fill="none"></path></g><g transform="translate(346.5454594671702 499.85121376021834) rotate(0 65.45358604295302 0.5602766029119266)"><path d="M102 9.34 C110.33 8.57, 119.14 6.09, 132.6 2.3 M103.79 10.43 C108.97 7.64, 114.94 7, 131.58 1.03" stroke="#000000" stroke-width="1" fill="none"></path></g><g transform="translate(346.5454594671702 499.85121376021834) rotate(0 65.45358604295302 0.5602766029119266)"><path d="M101.8 -11.18 C110.28 -5.64, 119.16 -1.8, 132.6 2.3 M103.58 -10.09 C108.67 -8.34, 114.69 -4.44, 131.58 1.03" stroke="#000000" stroke-width="1" fill="none"></path></g></g><g stroke-linecap="round"><g transform="translate(480.9135710644226 529.0399820428279) rotate(0 -68.14892459021104 -0.4294706260334351)"><path d="M0 -0.63 C-22.59 -0.87, -112.62 -0.71, -135.08 -0.62 M-1.46 1.66 C-24.29 0.97, -113.93 -1.92, -136.29 -2.52" stroke="#000000" stroke-width="1" fill="none"></path></g><g transform="translate(480.9135710644226 529.0399820428279) rotate(0 -68.14892459021104 -0.4294706260334351)"><path d="M-108.86 -12.77 C-116.59 -9.08, -125.26 -4.14, -138.04 -1.05 M-107.44 -12.44 C-117.68 -9.61, -125.5 -6.71, -136.79 -2.45" stroke="#000000" stroke-width="1" fill="none"></path></g><g transform="translate(480.9135710644226 529.0399820428279) rotate(0 -68.14892459021104 -0.4294706260334351)"><path d="M-109.47 7.74 C-117.14 4.55, -125.61 2.61, -138.04 -1.05 M-108.05 8.07 C-118.12 4.23, -125.74 0.45, -136.79 -2.45" stroke="#000000" stroke-width="1" fill="none"></path></g></g><g stroke-linecap="round" transform="translate(491.33333333333337 389.66666666666606) rotate(0 11.666666666666686 20)"><path d="M-1.77 0.91 L23.45 -0.47 L22.51 38.72 L-0.37 38.62" stroke="none" stroke-width="0" fill="#ffffffff"></path><path d="M-0.95 1.73 C7.36 1.66, 12.95 -0.96, 21.68 -1.08 M0.98 0.73 C5.63 -0.74, 13.6 -0.42, 23.22 -0.64 M25.06 -0.9 C21.57 6.93, 24.35 14.14, 22.93 39.91 M23.56 0.58 C24.19 15.35, 22.89 30.9, 23.03 39.58 M22.62 39.64 C15.48 38.74, 9.6 39.89, 1.3 38.22 M22.39 40.64 C15.81 40.08, 10.67 39.52, -0.98 40.26 M-0.17 38.66 C-0.13 31.24, -1.71 22.62, -0.82 1.84 M-0.28 39.14 C-0.94 23.72, 0.53 9.4, 0.54 0.56" stroke="#000000" stroke-width="1" fill="none"></path></g><g stroke-linecap="round" transform="translate(490.91666666666674 496.3333333333326) rotate(0 10 26.666666666666742)"><path d="M-1.21 -0.2 L20.95 -0.81 L18.57 53.35 L1.02 51.88" stroke="none" stroke-width="0" fill="#ffffffff"></path><path d="M-1.46 -1.13 C9.3 -0.62, 14.85 -1.43, 18.02 0.63 M-0.95 -0.55 C8.27 -0.87, 15.45 0.05, 20.75 0.36 M21.44 0.7 C18.96 15.22, 19.52 26.04, 20.01 54.93 M19.58 -0.53 C19.96 11.74, 20.46 22.51, 19.84 52.52 M18.22 53.68 C16 52.69, 7.63 53.98, -1.26 55.3 M20.13 53.7 C14.39 53.99, 9.68 54.12, 0.91 53.76 M-1.55 52.09 C1.54 43.8, 1.23 32.52, -1.77 0.91 M-0.64 53.15 C-0.56 37.08, 0.7 20.89, 0.67 -0.14" stroke="#000000" stroke-width="1" fill="none"></path></g><g transform="translate(369.3030303030307 466.78787878787944) rotate(0 46 13)"><text x="0" y="18" font-family="Virgil, Segoe UI Emoji" font-size="20px" fill="#000000" text-anchor="start" style="white-space: pre;" direction="ltr">ps &lt;PID&gt;</text></g></svg>