<svg version="1.1" xmlns="http://www.w3.org/2000/svg" viewBox="0 0 922.6666666666666 754.9220215067271" width="922.6666666666666" height="754.9220215067271">
  <!-- svg-source:excalidraw -->
  
  <defs>
    <style>
      @font-face {
        font-family: "Virgil";
        src: url("https://excalidraw.com/Virgil.woff2");
      }
      @font-face {
        font-family: "Cascadia";
        src: url("https://excalidraw.com/Cascadia.woff2");
      }
    </style>
  </defs>
  <rect x="0" y="0" width="922.6666666666666" height="754.9220215067271" fill="#ffffff"></rect><g stroke-linecap="round"><g transform="translate(29.999999999999886 47) rotate(0 -3.1643356621870566 334.6032505676012)"><path d="M-0.42 -0.11 C-1.76 111.44, -6.69 558.69, -7.9 670.42 M1.57 -1.22 C0.58 110.5, -3.96 557.1, -5.68 668.67" stroke="#000000" stroke-width="1" fill="none"></path></g></g><g transform="translate(10 10) rotate(0 21 13)"><text x="0" y="18" font-family="Virgil, Segoe UI Emoji" font-size="20px" fill="#000000" text-anchor="start" style="white-space: pre;" direction="ltr">user</text></g><g stroke-linecap="round"><g transform="translate(166.9999999999999 54) rotate(0 -2.2973979619750935 342.59297750114)"><path d="M-0.95 0.71 C-1.77 114.92, -4.59 571.01, -5.35 685.15 M0.75 0.04 C0.36 113.9, -2.36 569.38, -2.99 683.32" stroke="#000000" stroke-width="1" fill="none"></path></g></g><g transform="translate(141.9999999999999 16) rotate(0 25.5 13)"><text x="0" y="18" font-family="Virgil, Segoe UI Emoji" font-size="20px" fill="#000000" text-anchor="start" style="white-space: pre;" direction="ltr">client</text></g><g stroke-linecap="round"><g transform="translate(330.9999999999999 57) rotate(0 -1.2385891050705595 343.8753091385822)"><path d="M-0.67 0.57 C-1.12 115.11, -3.18 573.47, -3.65 687.92 M1.17 -0.17 C1.18 113.98, -0.41 571.49, -1.37 686.3" stroke="#000000" stroke-width="1" fill="none"></path></g></g><g transform="translate(302.9999999999999 15) rotate(0 33 13)"><text x="0" y="18" font-family="Virgil, Segoe UI Emoji" font-size="20px" fill="#000000" text-anchor="start" style="white-space: pre;" direction="ltr">service</text></g><g stroke-linecap="round"><g transform="translate(502.9999999999999 65) rotate(0 -2.178118136883654 338.0094144862751)"><path d="M-0.82 0.96 C-1.6 113.47, -4.55 563.08, -5.3 675.6 M0.94 0.42 C0.63 112.49, -1.7 561.35, -2.93 673.63" stroke="#000000" stroke-width="1" fill="none"></path></g></g><g transform="translate(489.9999999999999 28) rotate(0 13.5 13)"><text x="0" y="18" font-family="Virgil, Segoe UI Emoji" font-size="20px" fill="#000000" text-anchor="start" style="white-space: pre;" direction="ltr">OS</text></g><g stroke-linecap="round"><g transform="translate(651.9999999999999 60) rotate(0 -2.3726680532563478 340.35817088373005)"><path d="M0 -0.76 C-0.5 112.69, -3.4 567.74, -3.99 681.48 M-1.46 1.46 C-2 114.46, -4.33 566.46, -4.74 679.48" stroke="#000000" stroke-width="1" fill="none"></path></g></g><g transform="translate(623.9999999999999 25) rotate(0 36 13)"><text x="0" y="18" font-family="Virgil, Segoe UI Emoji" font-size="20px" fill="#000000" text-anchor="start" style="white-space: pre;" direction="ltr">process</text></g><g transform="translate(679.6666666666666 140.66666666666697) rotate(0 116.5 26)"><text x="0" y="18" font-family="Virgil, Segoe UI Emoji" font-size="20px" fill="#000000" text-anchor="start" style="white-space: pre;" direction="ltr">(writes to descriptors </text><text x="0" y="44" font-family="Virgil, Segoe UI Emoji" font-size="20px" fill="#000000" text-anchor="start" style="white-space: pre;" direction="ltr">being buffers in service)</text></g><g stroke-linecap="round" transform="translate(150.33333333333292 378) rotate(0 9.666666666666742 162.83333333333326)"><path d="M-1.66 1.44 L17.42 0.89 L18.32 327.57 L-0.62 325.05" stroke="none" stroke-width="0" fill="#ffffffff"></path><path d="M0.48 -1.05 C5.72 -1.53, 10.17 0.1, 18.11 0.61 M-0.91 0.64 C6.62 -0.86, 12.24 0.82, 19.15 -0.45 M18.35 -1.02 C21.69 82.25, 22.2 166.71, 20.07 324.63 M19.06 -0.06 C16.95 72.86, 17.15 144.08, 19.09 326.29 M18.23 325.4 C12.53 326.7, 9.34 323.94, 0.28 325.09 M19.95 325.68 C15.04 326.81, 10.67 326.52, 0.43 325.34 M0.77 325.35 C-0.38 199.49, -0.6 70.15, 1.03 -0.48 M-0.58 326.18 C1.21 223.75, 0.88 121.9, 0.5 -0.41" stroke="#000000" stroke-width="1" fill="none"></path></g><g stroke-linecap="round"><g transform="translate(32.33333333333337 389.1846850984002) rotate(0 62.248608140877906 -0.20312971913722322)"><path d="M0.3 -0.65 C21.06 -0.88, 104.64 -1.96, 125.5 -2.02 M-1 1.62 C19.58 1.56, 103.94 -0.8, 124.96 -1.02" stroke="#000000" stroke-width="1" fill="none"></path></g><g transform="translate(32.33333333333337 389.1846850984002) rotate(0 62.248608140877906 -0.20312971913722322)"><path d="M95.89 11.1 C105.99 6.89, 118.3 0.24, 125.59 -0.62 M97.65 10.26 C106.33 5.99, 118.27 1.98, 124.49 -1.47" stroke="#000000" stroke-width="1" fill="none"></path></g><g transform="translate(32.33333333333337 389.1846850984002) rotate(0 62.248608140877906 -0.20312971913722322)"><path d="M95.48 -9.42 C105.62 -5.83, 118.09 -4.68, 125.59 -0.62 M97.23 -10.26 C106.14 -7.04, 118.24 -3.56, 124.49 -1.47" stroke="#000000" stroke-width="1" fill="none"></path></g></g><g transform="translate(51.66666666666663 317.0000000000009) rotate(0 38.5 26)"><text x="0" y="18" font-family="Virgil, Segoe UI Emoji" font-size="20px" fill="#000000" text-anchor="start" style="white-space: pre;" direction="ltr">stream</text><text x="0" y="44" font-family="Virgil, Segoe UI Emoji" font-size="20px" fill="#000000" text-anchor="start" style="white-space: pre;" direction="ltr">&lt;UUID&gt;</text></g><g stroke-linecap="round" transform="translate(318.33333333333337 388) rotate(0 7.499999999999943 159.16666666666652)"><path d="M0.89 -1.02 L16.91 -0.62 L14.38 318.63 L1.74 318.36" stroke="none" stroke-width="0" fill="#ffffffff"></path><path d="M-1.27 0.95 C4.87 -1.05, 10.22 0.2, 15.97 0.54 M-0.61 -0.1 C3.78 -0.21, 5.84 -0.41, 15.75 0.34 M14.23 0.64 C14.07 73.5, 12.3 144.4, 13.79 318.13 M15.5 -0.26 C14.14 82.77, 15.46 165.88, 14.45 319 M15.66 318.94 C9.87 318.44, 7.26 316.9, -0.43 319.78 M15.74 317.97 C10.06 318.64, 3.82 318.99, -0.07 318.46 M1.18 317.5 C-0.36 206.24, 0.01 92.22, -0.88 -0.47 M-0.21 317.81 C-2.03 250.23, -2.09 180.54, 0.51 -0.67" stroke="#000000" stroke-width="1" fill="none"></path></g><g stroke-linecap="round"><g transform="translate(185.6666666666664 395.03890563634786) rotate(0 57.82614683782077 2.245812069782005)"><path d="M-1.01 0.76 C18.54 1.17, 96.99 2.66, 116.66 3.24 M0.66 0.11 C20.11 0.59, 96.41 3.45, 115.72 4.38" stroke="#000000" stroke-width="1" fill="none"></path></g><g transform="translate(185.6666666666664 395.03890563634786) rotate(0 57.82614683782077 2.245812069782005)"><path d="M88.39 13.45 C92.82 12.1, 101.5 10.53, 116.44 2.5 M86.99 14.37 C97.37 9.89, 107.6 8.03, 116.16 3.66" stroke="#000000" stroke-width="1" fill="none"></path></g><g transform="translate(185.6666666666664 395.03890563634786) rotate(0 57.82614683782077 2.245812069782005)"><path d="M89.24 -7.05 C93.6 -3.38, 102.07 0.09, 116.44 2.5 M87.85 -6.13 C98.01 -3.1, 107.92 2.55, 116.16 3.66" stroke="#000000" stroke-width="1" fill="none"></path></g></g><g stroke-linecap="round" transform="translate(638.9999999999999 135) rotate(0 11.666666666666742 297.66666666666697)"><path d="M0.02 -1.72 L24.13 -1.4 L22.72 595.25 L1.72 593.81" stroke="none" stroke-width="0" fill="#ffffffff"></path><path d="M0.72 -1.88 C9.07 0.76, 13.83 -0.42, 25.17 -0.38 M0.45 -0.71 C5.18 -0.15, 11.28 0.22, 23.84 0.54 M23.22 -0.31 C21.42 133.55, 22.05 267.85, 22.56 595.06 M23.71 -0.23 C22.77 232.36, 23 465.47, 22.94 595.39 M25.26 596.62 C17.06 594.86, 12.71 594.29, 1.38 596.23 M23.51 595.89 C16.9 594.88, 11.75 594.72, -0.61 596.08 M-0.27 594.66 C0.31 437.41, -0.53 279.33, -0.41 0.57 M-0.38 595.51 C1.78 452.87, 1.86 309.51, 0.06 0.35" stroke="#000000" stroke-width="1" fill="none"></path></g><g stroke-linecap="round"><g transform="translate(302.33333333333337 702.6162033076007) rotate(0 -58.42514195459535 0.147347326214458)"><path d="M-0.17 -0.31 C-19.33 -0.13, -96.82 0.33, -116.06 0.6 M-1.71 -1.52 C-20.88 -1.14, -97.67 1.12, -116.68 1.81" stroke="#000000" stroke-width="1" fill="none"></path></g><g transform="translate(302.33333333333337 702.6162033076007) rotate(0 -58.42514195459535 0.147347326214458)"><path d="M-89.35 -8.33 C-95.74 -5.3, -100.41 -3.3, -116.86 3.73 M-88.45 -10.34 C-99 -6.31, -106.92 -1.58, -117.15 2.79" stroke="#000000" stroke-width="1" fill="none"></path></g><g transform="translate(302.33333333333337 702.6162033076007) rotate(0 -58.42514195459535 0.147347326214458)"><path d="M-88.69 12.18 C-95.13 10.93, -99.94 8.64, -116.86 3.73 M-87.78 10.17 C-98.38 7.27, -106.52 5.08, -117.15 2.79" stroke="#000000" stroke-width="1" fill="none"></path></g></g><g stroke-linecap="round"><g transform="translate(140.05564407981467 701.0108532844547) rotate(0 -52.249239951383004 -0.5167333518361374)"><path d="M-0.94 0.85 C-18.31 0.7, -87.21 0.07, -104.3 -0.31 M0.77 0.25 C-16.76 -0.27, -87.84 -1.82, -105.27 -1.88" stroke="#000000" stroke-width="1" fill="none"></path></g><g transform="translate(140.05564407981467 701.0108532844547) rotate(0 -52.249239951383004 -0.5167333518361374)"><path d="M-75.52 -11.81 C-83.57 -7.72, -93.83 -6.05, -105.88 -1.11 M-77.83 -11.23 C-86.68 -8.02, -95.29 -4.05, -105.1 -1.41" stroke="#000000" stroke-width="1" fill="none"></path></g><g transform="translate(140.05564407981467 701.0108532844547) rotate(0 -52.249239951383004 -0.5167333518361374)"><path d="M-75.82 8.71 C-83.88 6.71, -94.06 2.28, -105.88 -1.11 M-78.12 9.29 C-87.06 5.5, -95.58 2.46, -105.1 -1.41" stroke="#000000" stroke-width="1" fill="none"></path></g></g><g stroke-linecap="round" transform="translate(17 375) rotate(0 7.166666666666686 178)"><path d="M-0.08 1.72 L12.81 1.53 L15.25 354.97 L-0.34 355.23" stroke="none" stroke-width="0" fill="#ffffffff"></path><path d="M-0.19 1.32 C4.98 -0.55, 9.86 1.54, 14.98 -1.02 M0.33 0.37 C3.63 -0.46, 5.93 -0.54, 14.23 -0.28 M13.87 -1.23 C12.4 105.08, 12.57 206.84, 15.54 355.27 M14.59 -0.63 C12.76 101.77, 12.1 203.75, 14.95 356.41 M13.64 356.99 C10.65 355.66, 7 356.01, 0.25 356.79 M13.91 355.56 C10.89 355.87, 6.47 355.67, -0.24 355.39 M-0.96 355.35 C1.57 221.81, -0.42 90.08, -1.23 0.57 M-0.2 356.09 C-1.62 267.28, -2.72 178.8, -0.45 -0.2" stroke="#000000" stroke-width="1" fill="none"></path></g><g transform="translate(197.83333333333314 340.33333333333394) rotate(0 38.5 26)"><text x="0" y="18" font-family="Virgil, Segoe UI Emoji" font-size="20px" fill="#000000" text-anchor="start" style="white-space: pre;" direction="ltr">stream</text><text x="0" y="44" font-family="Virgil, Segoe UI Emoji" font-size="20px" fill="#000000" text-anchor="start" style="white-space: pre;" direction="ltr">&lt;UUID&gt;</text></g><g stroke-linecap="round"><g transform="translate(138.38897741314815 676.0108532844547) rotate(0 -52.34172233757252 -0.3262032448487844)"><path d="M0.56 -1.09 C-16.98 -1.39, -86.9 -1.66, -104.29 -1.61 M-0.6 0.96 C-18.38 0.82, -87.97 0.43, -105.25 -0.2" stroke="#000000" stroke-width="1" fill="none"></path></g><g transform="translate(138.38897741314815 676.0108532844547) rotate(0 -52.34172233757252 -0.3262032448487844)"><path d="M-78.68 -9.98 C-88.06 -5.25, -97.45 -0.57, -103.61 0.31 M-77.56 -9.48 C-82.55 -8.42, -88.8 -6.63, -105.98 -1" stroke="#000000" stroke-width="1" fill="none"></path></g><g transform="translate(138.38897741314815 676.0108532844547) rotate(0 -52.34172233757252 -0.3262032448487844)"><path d="M-79.06 10.54 C-88.34 7.47, -97.58 4.35, -103.61 0.31 M-77.95 11.04 C-82.98 7.73, -89.15 5.16, -105.98 -1" stroke="#000000" stroke-width="1" fill="none"></path></g></g><g stroke-linecap="round"><g transform="translate(138.38897741314815 652.6775199511212) rotate(0 -51.546217912446394 -0.7598167484784426)"><path d="M-0.52 -1.2 C-17.66 -1.35, -86.69 -0.4, -103.8 -0.59 M1.41 0.79 C-15.76 0.28, -87.04 -1.92, -104.5 -2.31" stroke="#000000" stroke-width="1" fill="none"></path></g><g transform="translate(138.38897741314815 652.6775199511212) rotate(0 -51.546217912446394 -0.7598167484784426)"><path d="M-78.03 -11.03 C-81 -8, -90.19 -5.85, -106.11 -2.13 M-76.82 -11.66 C-83.99 -9.1, -90.91 -8.19, -103.7 -3.26" stroke="#000000" stroke-width="1" fill="none"></path></g><g transform="translate(138.38897741314815 652.6775199511212) rotate(0 -51.546217912446394 -0.7598167484784426)"><path d="M-78.59 9.49 C-81.49 8.01, -90.56 5.64, -106.11 -2.13 M-77.38 8.85 C-84.22 6.17, -91 1.83, -103.7 -3.26" stroke="#000000" stroke-width="1" fill="none"></path></g></g><g stroke-linecap="round"><g transform="translate(136.7223107464814 629.3441866177882) rotate(0 -52.03206021335595 -0.019099759871551214)"><path d="M0.17 -0.69 C-16.92 -0.8, -86.02 -1.65, -103.62 -1.6 M-1.21 1.55 C-18.29 1.71, -87.24 0.44, -104.23 -0.19" stroke="#000000" stroke-width="1" fill="none"></path></g><g transform="translate(136.7223107464814 629.3441866177882) rotate(0 -52.03206021335595 -0.019099759871551214)"><path d="M-76.94 -8.65 C-82.15 -9.68, -86 -7.66, -102.94 0.74 M-74.87 -9.59 C-85.1 -7.18, -94.88 -3.44, -103.63 -0.88" stroke="#000000" stroke-width="1" fill="none"></path></g><g transform="translate(136.7223107464814 629.3441866177882) rotate(0 -52.03206021335595 -0.019099759871551214)"><path d="M-77.47 11.86 C-82.41 6.6, -86.15 4.39, -102.94 0.74 M-75.4 10.92 C-85.28 6.14, -94.87 2.68, -103.63 -0.88" stroke="#000000" stroke-width="1" fill="none"></path></g></g><g stroke-linecap="round"><g transform="translate(143.38897741314815 614.3441866177882) rotate(0 -52.7367207566152 -0.8726076208447466)"><path d="M0.21 0.86 C-17.14 0.59, -87.04 -0.42, -104.57 -0.78 M-1.14 0.26 C-18.64 -0.43, -88.79 -2.56, -105.68 -2.6" stroke="#000000" stroke-width="1" fill="none"></path></g><g transform="translate(143.38897741314815 614.3441866177882) rotate(0 -52.7367207566152 -0.8726076208447466)"><path d="M-75.88 -12.85 C-83.71 -10.98, -92.01 -5.35, -106.08 -2.02 M-76.8 -11.6 C-86.88 -8.47, -94.44 -7, -106.59 -3.01" stroke="#000000" stroke-width="1" fill="none"></path></g><g transform="translate(143.38897741314815 614.3441866177882) rotate(0 -52.7367207566152 -0.8726076208447466)"><path d="M-76.26 7.67 C-84.13 4.17, -92.33 4.44, -106.08 -2.02 M-77.19 8.92 C-87.31 5.49, -94.75 0.4, -106.59 -3.01" stroke="#000000" stroke-width="1" fill="none"></path></g></g><g stroke-linecap="round"><g transform="translate(143.38897741314815 596.0108532844547) rotate(0 -52.45287211808068 -0.33569982943777177)"><path d="M0.54 -0.98 C-16.67 -1.16, -86.91 -0.09, -104.42 -0.24 M-0.63 1.12 C-17.92 0.56, -87.99 -1.45, -105.45 -1.79" stroke="#000000" stroke-width="1" fill="none"></path></g><g transform="translate(143.38897741314815 596.0108532844547) rotate(0 -52.45287211808068 -0.33569982943777177)"><path d="M-78.65 -11.61 C-80.97 -9.63, -89.61 -8.18, -103.46 -0.89 M-77.56 -10.89 C-83.07 -8.6, -90.83 -7.73, -106.31 -1.93" stroke="#000000" stroke-width="1" fill="none"></path></g><g transform="translate(143.38897741314815 596.0108532844547) rotate(0 -52.45287211808068 -0.33569982943777177)"><path d="M-79.16 8.9 C-81.51 6.65, -90.04 3.87, -103.46 -0.89 M-78.07 9.62 C-83.31 7.22, -90.95 3.41, -106.31 -1.93" stroke="#000000" stroke-width="1" fill="none"></path></g></g><g stroke-linecap="round"><g transform="translate(302.33333333333337 675.9495366409337) rotate(0 -58.53400149052135 0.9123271281746383)"><path d="M-0.95 0.11 C-20.61 0.46, -97.55 1.05, -116.8 1.19 M0.76 -0.88 C-19.18 -0.25, -98.18 2.21, -117.82 2.7" stroke="#000000" stroke-width="1" fill="none"></path></g><g transform="translate(302.33333333333337 675.9495366409337) rotate(0 -58.53400149052135 0.9123271281746383)"><path d="M-89.76 -8.59 C-101.18 -3.85, -112.7 -1.24, -116.45 3.1 M-89.54 -9.21 C-97.7 -5.82, -104.67 -2.32, -117.21 2.39" stroke="#000000" stroke-width="1" fill="none"></path></g><g transform="translate(302.33333333333337 675.9495366409337) rotate(0 -58.53400149052135 0.9123271281746383)"><path d="M-89.17 11.92 C-100.67 8.49, -112.42 2.94, -116.45 3.1 M-88.95 11.3 C-97.14 9.3, -104.27 7.4, -117.21 2.39" stroke="#000000" stroke-width="1" fill="none"></path></g></g><g stroke-linecap="round"><g transform="translate(302.33333333333337 654.2828699742672) rotate(0 -58.047989929733944 0.1669800825100083)"><path d="M0.74 -0.37 C-18.63 -0.07, -96.59 1.68, -116.15 1.95 M-0.34 -1.61 C-19.81 -1.66, -97.32 -0.48, -116.83 0.21" stroke="#000000" stroke-width="1" fill="none"></path></g><g transform="translate(302.33333333333337 654.2828699742672) rotate(0 -58.047989929733944 0.1669800825100083)"><path d="M-89.51 -9.86 C-96.09 -7.22, -105.74 -5.56, -118.56 1.69 M-88.07 -10.84 C-98.71 -6.53, -110.71 -1.98, -117.31 0.98" stroke="#000000" stroke-width="1" fill="none"></path></g><g transform="translate(302.33333333333337 654.2828699742672) rotate(0 -58.047989929733944 0.1669800825100083)"><path d="M-89.03 10.66 C-95.77 7.12, -105.57 2.59, -118.56 1.69 M-87.59 9.68 C-98.42 6.19, -110.6 2.93, -117.31 0.98" stroke="#000000" stroke-width="1" fill="none"></path></g></g><g stroke-linecap="round"><g transform="translate(302.33333333333337 632.6162033076007) rotate(0 -57.93181823151758 0.8929362842077353)"><path d="M0.34 -0.58 C-18.93 -0.07, -96.33 1.99, -115.74 2.36 M-0.95 1.74 C-20.28 2, -96.92 1.2, -116.2 0.84" stroke="#000000" stroke-width="1" fill="none"></path></g><g transform="translate(302.33333333333337 632.6162033076007) rotate(0 -57.93181823151758 0.8929362842077353)"><path d="M-88.83 -7.49 C-94.22 -5.22, -103.58 -5.24, -114.47 1.11 M-87.4 -9.11 C-94.73 -6.75, -103.03 -4.03, -116.77 0.24" stroke="#000000" stroke-width="1" fill="none"></path></g><g transform="translate(302.33333333333337 632.6162033076007) rotate(0 -57.93181823151758 0.8929362842077353)"><path d="M-89.11 13.03 C-94.3 9.37, -103.58 3.42, -114.47 1.11 M-87.68 11.41 C-95.1 8.29, -103.32 5.53, -116.77 0.24" stroke="#000000" stroke-width="1" fill="none"></path></g></g><g stroke-linecap="round"><g transform="translate(302.33333333333337 614.2828699742672) rotate(0 -58.52796632277415 0.37663147383455)"><path d="M0.75 -0.37 C-18.81 -0.19, -97.11 0.81, -116.79 0.96 M-0.31 -1.61 C-20.09 -1.24, -98.11 1.85, -117.81 2.36" stroke="#000000" stroke-width="1" fill="none"></path></g><g transform="translate(302.33333333333337 614.2828699742672) rotate(0 -58.52796632277415 0.37663147383455)"><path d="M-90.59 -9.05 C-100.08 -5.93, -110.48 -0.47, -117.74 3.15 M-90.87 -8.78 C-96.29 -6.86, -102.11 -3.51, -117.12 1.91" stroke="#000000" stroke-width="1" fill="none"></path></g><g transform="translate(302.33333333333337 614.2828699742672) rotate(0 -58.52796632277415 0.37663147383455)"><path d="M-89.9 11.46 C-99.61 7.48, -110.26 5.82, -117.74 3.15 M-90.18 11.73 C-95.87 9.35, -101.83 8.4, -117.12 1.91" stroke="#000000" stroke-width="1" fill="none"></path></g></g><g stroke-linecap="round"><g transform="translate(302.33333333333337 590.9495366409337) rotate(0 -58.42498111818094 1.1520012487201257)"><path d="M0.8 0.54 C-18.88 0.91, -98.26 0.99, -117.65 1.06 M-0.24 -0.22 C-19.59 0.44, -96.2 2.12, -115.45 2.52" stroke="#000000" stroke-width="1" fill="none"></path></g><g transform="translate(302.33333333333337 590.9495366409337) rotate(0 -58.42498111818094 1.1520012487201257)"><path d="M-86.58 -9.99 C-97.26 -2.67, -106.78 -1.79, -116.36 4.51 M-87.41 -8.89 C-96.76 -4.3, -106.32 -1.81, -116.23 1.66" stroke="#000000" stroke-width="1" fill="none"></path></g><g transform="translate(302.33333333333337 590.9495366409337) rotate(0 -58.42498111818094 1.1520012487201257)"><path d="M-86.14 10.53 C-96.77 10.95, -106.44 4.94, -116.36 4.51 M-86.96 11.62 C-96.32 9.14, -106.03 4.56, -116.23 1.66" stroke="#000000" stroke-width="1" fill="none"></path></g></g><g stroke-linecap="round"><g transform="translate(627.5530303030304 389.51586083293796) rotate(0 -142.54241175726048 1.6350525330951768)"><path d="M-0.07 0.86 C-47.76 1.09, -237.34 2.06, -285.02 2.41" stroke="#000000" stroke-width="1.5" fill="none" stroke-dasharray="1.5 7"></path></g><g transform="translate(627.5530303030304 389.51586083293796) rotate(0 -142.54241175726048 1.6350525330951768)"><path d="M-255.45 -8.05 C-269.56 -5.78, -279.82 -1.45, -283.45 2.32" stroke="#000000" stroke-width="1.5" fill="none" stroke-dasharray="1.5 5"></path></g><g transform="translate(627.5530303030304 389.51586083293796) rotate(0 -142.54241175726048 1.6350525330951768)"><path d="M-255.32 12.47 C-269.67 6.62, -279.98 2.82, -283.45 2.32" stroke="#000000" stroke-width="1.5" fill="none" stroke-dasharray="1.5 5"></path></g></g><g stroke-linecap="round"><g transform="translate(627.5530303030304 457.1165788231265) rotate(0 -142.56823612377048 1.8182305925017772)"><path d="M0.06 0.63 C-47.29 1, -237.75 2.45, -285.2 3" stroke="#000000" stroke-width="1.5" fill="none" stroke-dasharray="1.5 7"></path></g><g transform="translate(627.5530303030304 457.1165788231265) rotate(0 -142.56823612377048 1.8182305925017772)"><path d="M-256.05 -7.85 C-263.35 -4.63, -267.6 -4.39, -284.63 2.87" stroke="#000000" stroke-width="1.5" fill="none" stroke-dasharray="1.5 5"></path></g><g transform="translate(627.5530303030304 457.1165788231265) rotate(0 -142.56823612377048 1.8182305925017772)"><path d="M-255.86 12.67 C-263.33 11.62, -267.63 7.6, -284.63 2.87" stroke="#000000" stroke-width="1.5" fill="none" stroke-dasharray="1.5 5"></path></g></g><g stroke-linecap="round"><g transform="translate(626.3030303030304 524.7130485189368) rotate(0 -143.45805368497957 0.9857268597165785)"><path d="M-0.73 -0.16 C-48.55 0.02, -238.71 1.67, -286.19 2.13" stroke="#000000" stroke-width="1.5" fill="none" stroke-dasharray="1.5 7"></path></g><g transform="translate(626.3030303030304 524.7130485189368) rotate(0 -143.45805368497957 0.9857268597165785)"><path d="M-258.35 -10.36 C-269.94 -5.71, -279.36 0.73, -287.43 3.05" stroke="#000000" stroke-width="1.5" fill="none" stroke-dasharray="1.5 5"></path></g><g transform="translate(626.3030303030304 524.7130485189368) rotate(0 -143.45805368497957 0.9857268597165785)"><path d="M-258.17 10.16 C-270.01 7.38, -279.5 6.39, -287.43 3.05" stroke="#000000" stroke-width="1.5" fill="none" stroke-dasharray="1.5 5"></path></g></g><g stroke-linecap="round"><g transform="translate(627.5530303030304 579.7948344269262) rotate(0 -142.93566343858828 1.6452151303733444)"><path d="M-0.12 -0.59 C-47.71 0, -238.23 3.37, -285.75 3.88" stroke="#000000" stroke-width="1.5" fill="none" stroke-dasharray="1.5 7"></path></g><g transform="translate(627.5530303030304 579.7948344269262) rotate(0 -142.93566343858828 1.6452151303733444)"><path d="M-258.69 -8.04 C-264.23 -4.21, -274.4 -2.38, -286.28 3.53" stroke="#000000" stroke-width="1.5" fill="none" stroke-dasharray="1.5 5"></path></g><g transform="translate(627.5530303030304 579.7948344269262) rotate(0 -142.93566343858828 1.6452151303733444)"><path d="M-258.39 12.48 C-264.08 10.57, -274.33 6.68, -286.28 3.53" stroke="#000000" stroke-width="1.5" fill="none" stroke-dasharray="1.5 5"></path></g></g><g stroke-linecap="round"><g transform="translate(621.3030303030304 637.8712121212138) rotate(0 -141.85550417974594 2.332739485055299)"><path d="M0.14 0.25 C-46.99 1.05, -236.52 3.79, -283.85 4.41" stroke="#000000" stroke-width="1.5" fill="none" stroke-dasharray="1.5 7"></path></g><g transform="translate(621.3030303030304 637.8712121212138) rotate(0 -141.85550417974594 2.332739485055299)"><path d="M-255.39 -4.32 C-260.65 -2.07, -267.26 -0.89, -285.69 5.16" stroke="#000000" stroke-width="1.5" fill="none" stroke-dasharray="1.5 5"></path></g><g transform="translate(621.3030303030304 637.8712121212138) rotate(0 -141.85550417974594 2.332739485055299)"><path d="M-255.1 16.19 C-260.35 14.13, -267.02 10.97, -285.69 5.16" stroke="#000000" stroke-width="1.5" fill="none" stroke-dasharray="1.5 5"></path></g></g><g stroke-linecap="round"><g transform="translate(623.8030303030304 709.9665918514238) rotate(0 -144.76155304955182 1.773460530381044)"><path d="M0.73 1.19 C-47.64 1.4, -241.95 2.2, -290.26 2.36" stroke="#000000" stroke-width="1.5" fill="none" stroke-dasharray="1.5 7"></path></g><g transform="translate(623.8030303030304 709.9665918514238) rotate(0 -144.76155304955182 1.773460530381044)"><path d="M-260.13 -8.17 C-271.39 -3.01, -280.11 -2.19, -291.88 1.09" stroke="#000000" stroke-width="1.5" fill="none" stroke-dasharray="1.5 5"></path></g><g transform="translate(623.8030303030304 709.9665918514238) rotate(0 -144.76155304955182 1.773460530381044)"><path d="M-260.05 12.35 C-271.52 11.42, -280.26 6.14, -291.88 1.09" stroke="#000000" stroke-width="1.5" fill="none" stroke-dasharray="1.5 5"></path></g></g><g stroke-linecap="round"><g transform="translate(627.5530303030304 311.89661005181006) rotate(0 -142.5982646472752 0.8045124130676413)"><path d="M1 -1.18 C-46.59 -0.62, -238.65 2.02, -286.2 2.79" stroke="#000000" stroke-width="1.5" fill="none" stroke-dasharray="1.5 7"></path></g><g transform="translate(627.5530303030304 311.89661005181006) rotate(0 -142.5982646472752 0.8045124130676413)"><path d="M-260.13 -9.88 C-266.22 -3.84, -272 -3.92, -285.68 1.38" stroke="#000000" stroke-width="1.5" fill="none" stroke-dasharray="1.5 5"></path></g><g transform="translate(627.5530303030304 311.89661005181006) rotate(0 -142.5982646472752 0.8045124130676413)"><path d="M-259.83 10.64 C-265.9 11.65, -271.75 6.54, -285.68 1.38" stroke="#000000" stroke-width="1.5" fill="none" stroke-dasharray="1.5 5"></path></g></g><g stroke-linecap="round"><g transform="translate(627.5530303030304 245.54464493956402) rotate(0 -141.736157952994 2.0077346122279778)"><path d="M0.87 -0.46 C-46.53 0.48, -236.83 3.62, -284.34 4.48" stroke="#000000" stroke-width="1.5" fill="none" stroke-dasharray="1.5 7"></path></g><g transform="translate(627.5530303030304 245.54464493956402) rotate(0 -141.736157952994 2.0077346122279778)"><path d="M-257.1 -5.17 C-263.48 -1.49, -271.72 -1.41, -282.89 4.42" stroke="#000000" stroke-width="1.5" fill="none" stroke-dasharray="1.5 5"></path></g><g transform="translate(627.5530303030304 245.54464493956402) rotate(0 -141.736157952994 2.0077346122279778)"><path d="M-256.74 15.35 C-263.04 12.78, -271.39 6.59, -282.89 4.42" stroke="#000000" stroke-width="1.5" fill="none" stroke-dasharray="1.5 5"></path></g></g><g stroke-linecap="round"><g transform="translate(628.8030303030304 152.8995670450704) rotate(0 -142.07552199438214 1.838631717645967)"><path d="M-0.11 -0.06 C-47.3 0.74, -236.55 3.23, -284.05 3.74" stroke="#000000" stroke-width="1.5" fill="none" stroke-dasharray="1.5 7"></path></g><g transform="translate(628.8030303030304 152.8995670450704) rotate(0 -142.07552199438214 1.838631717645967)"><path d="M-256.08 -5.27 C-262.35 -4.68, -269.9 -2.53, -286 2.09" stroke="#000000" stroke-width="1.5" fill="none" stroke-dasharray="1.5 5"></path></g><g transform="translate(628.8030303030304 152.8995670450704) rotate(0 -142.07552199438214 1.838631717645967)"><path d="M-255.83 15.25 C-261.98 11.23, -269.59 8.78, -286 2.09" stroke="#000000" stroke-width="1.5" fill="none" stroke-dasharray="1.5 5"></path></g></g></svg>